{"glyphs":{"0":{"ha":1014,"x_min":0,"x_max":0,"o":"m 506 -19 b 57 483 228 -19 57 208 l 57 486 b 508 992 57 761 232 992 b 957 489 785 992 957 764 l 957 486 b 506 -19 957 211 783 -19 m 508 219 b 686 483 617 219 686 329 l 686 486 b 506 753 686 640 613 753 b 328 489 399 753 328 644 l 328 486 b 508 219 328 331 400 219 "},"1":{"ha":586,"x_min":0,"x_max":0,"o":"m 226 728 l 63 690 l 11 899 l 296 979 l 492 979 l 492 0 l 226 0 "},"2":{"ha":867,"x_min":0,"x_max":0,"o":"m 46 203 l 410 481 b 535 656 500 551 535 597 b 426 754 535 717 492 754 b 233 629 361 754 310 717 l 51 781 b 447 989 156 915 258 989 b 806 679 660 989 806 863 l 806 676 b 581 336 806 521 725 440 l 414 219 l 815 219 l 815 0 l 46 0 "},"3":{"ha":863,"x_min":0,"x_max":0,"o":"m 439 -19 b 25 153 251 -19 119 49 l 194 322 b 426 211 264 251 338 211 b 551 310 503 211 551 250 l 551 313 b 393 413 551 375 494 413 l 279 413 l 240 553 l 464 754 l 92 754 l 92 972 l 794 972 l 794 779 l 563 581 b 814 307 701 550 814 472 l 814 304 b 439 -19 814 107 656 -19 "},"4":{"ha":957,"x_min":0,"x_max":0,"o":"m 533 189 l 63 189 l 18 379 l 522 979 l 794 979 l 794 390 l 918 390 l 918 189 l 794 189 l 794 0 l 533 0 m 533 389 l 533 668 l 301 389 "},"5":{"ha":875,"x_min":0,"x_max":0,"o":"m 421 -19 b 26 135 249 -19 128 40 l 181 315 b 417 210 260 249 335 210 b 560 324 506 210 560 254 l 560 326 b 417 439 560 396 501 439 b 261 390 357 439 307 418 l 101 479 l 129 972 l 779 972 l 779 750 l 342 750 l 333 603 b 489 638 378 624 424 638 b 822 329 664 638 822 540 l 822 326 b 421 -19 822 110 657 -19 "},"6":{"ha":919,"x_min":0,"x_max":0,"o":"m 474 -19 b 176 92 336 -19 246 22 b 57 456 104 164 57 274 l 57 458 b 508 992 57 761 204 992 b 832 885 644 992 739 954 l 706 694 b 513 768 646 739 590 768 b 329 561 399 768 342 683 b 539 636 381 600 443 636 b 860 333 710 636 860 528 l 860 331 b 474 -19 860 113 686 -19 m 463 190 b 597 315 547 190 597 244 l 597 318 b 460 443 597 388 544 443 b 325 319 375 443 325 389 l 325 317 b 463 190 325 246 378 190 "},"7":{"ha":853,"x_min":0,"x_max":0,"o":"m 514 746 l 64 746 l 64 972 l 813 972 l 813 769 l 383 0 l 86 0 "},"8":{"ha":875,"x_min":0,"x_max":0,"o":"m 438 -17 b 38 268 204 -17 38 99 l 38 271 b 204 504 38 389 100 460 b 71 715 129 546 71 610 l 71 718 b 438 989 71 874 219 989 b 804 718 656 989 804 874 l 804 715 b 671 504 804 610 746 546 b 838 272 769 458 838 393 l 838 269 b 438 -17 838 96 671 -17 m 438 578 b 557 683 510 578 557 622 l 557 686 b 438 789 557 740 511 789 b 318 688 364 789 318 742 l 318 685 b 438 578 318 624 365 578 m 438 185 b 578 294 528 185 578 236 l 578 297 b 438 403 578 360 519 403 b 297 297 356 403 297 360 l 297 294 b 438 185 297 236 347 185 "},"9":{"ha":919,"x_min":0,"x_max":0,"o":"m 413 -19 b 74 96 268 -19 163 26 l 200 282 b 408 204 267 229 331 204 b 592 407 519 204 579 282 b 386 328 542 360 472 328 b 60 635 197 328 60 444 l 60 638 b 447 992 60 853 225 992 b 746 878 589 992 672 951 b 863 518 817 808 863 697 l 863 515 b 413 -19 863 197 704 -19 m 460 521 b 596 647 544 521 596 576 l 596 650 b 457 782 596 725 542 782 b 321 651 372 782 321 726 l 321 649 b 460 521 321 575 375 521 "}," ":{"ha":385,"x_min":0,"x_max":0,"o":""},"!":{"ha":450,"x_min":0,"x_max":0,"o":"m 75 854 l 75 972 l 375 972 l 375 854 l 294 317 l 156 317 m 88 236 l 363 236 l 363 0 l 88 0 "},"\"":{"ha":746,"x_min":0,"x_max":0,"o":"m 435 972 l 718 972 l 718 965 l 542 474 l 403 474 m 78 972 l 361 972 l 361 965 l 185 474 l 47 474 "},"#":{"ha":981,"x_min":0,"x_max":0,"o":"m 149 188 l 40 188 l 40 411 l 188 411 l 214 567 l 86 567 l 86 790 l 253 790 l 283 972 l 485 972 l 453 790 l 629 790 l 660 972 l 861 972 l 831 790 l 939 790 l 939 567 l 792 567 l 765 411 l 893 411 l 893 188 l 728 188 l 694 0 l 493 0 l 526 188 l 350 188 l 318 0 l 117 0 m 568 406 l 596 572 l 411 572 l 382 406 "},"$":{"ha":925,"x_min":0,"x_max":0,"o":"m 410 3 b 35 140 274 17 139 65 l 160 325 b 418 211 249 263 332 225 l 418 378 b 81 678 194 429 81 506 l 81 681 b 413 974 81 844 200 958 l 413 1053 l 557 1053 l 557 969 b 850 861 671 957 767 918 l 736 675 b 550 758 679 715 613 743 l 550 597 b 882 294 771 546 882 467 l 882 292 b 554 0 882 122 751 18 l 554 -136 l 410 -136 m 419 771 b 325 701 351 765 325 738 l 325 699 b 419 621 325 663 344 642 m 549 203 b 642 274 613 210 642 233 l 642 276 b 549 356 642 314 621 335 l 549 203 "},"%":{"ha":1249,"x_min":0,"x_max":0,"o":"m 299 463 b 49 722 149 463 49 579 l 49 725 b 300 986 49 868 147 986 b 550 726 451 986 550 868 l 550 724 b 299 463 550 581 449 463 m 906 972 l 1093 972 l 343 0 l 156 0 m 949 -14 b 699 246 799 -14 699 104 l 699 249 b 950 510 699 392 797 510 b 1200 250 1101 510 1200 393 l 1200 247 b 949 -14 1200 106 1099 -14 m 300 615 b 381 722 347 615 381 661 l 381 725 b 299 833 381 786 346 833 b 218 726 250 833 218 788 l 218 724 b 300 615 218 661 254 615 m 950 139 b 1031 246 997 139 1031 185 l 1031 249 b 949 357 1031 311 996 357 b 868 250 899 357 868 313 l 868 247 b 950 139 868 186 904 139 "},"&":{"ha":969,"x_min":0,"x_max":0,"o":"m 665 82 b 376 -17 583 19 489 -17 b 29 264 178 -17 29 88 l 29 267 b 226 539 29 388 94 479 b 163 725 182 603 163 663 l 163 728 b 468 992 163 869 278 992 b 757 742 644 992 757 883 l 757 739 b 567 486 757 619 681 539 l 675 381 b 767 535 707 426 738 479 l 944 446 b 817 240 904 372 863 303 l 947 111 l 765 -19 m 440 607 b 543 726 510 638 543 675 l 543 729 b 468 807 543 776 513 807 b 390 721 422 807 390 772 l 390 718 b 440 607 390 681 407 649 m 413 182 b 528 224 451 182 490 199 l 368 386 b 299 281 319 357 299 319 l 299 278 b 413 182 299 221 346 182 "},"’":{"ha":394,"x_min":0,"x_max":0,"o":"m 32 571 b 171 701 125 581 175 626 l 65 701 l 65 972 l 339 972 l 339 751 b 54 469 339 546 228 475 "},"(":{"ha":618,"x_min":0,"x_max":0,"o":"m 467 -196 b 61 399 207 -60 61 117 b 467 993 61 681 207 857 l 576 829 b 319 399 397 706 319 581 b 576 -32 319 217 397 92 l 467 -196 "},")":{"ha":618,"x_min":0,"x_max":0,"o":"m 42 -32 b 299 399 221 92 299 217 b 42 829 299 581 221 706 l 151 993 b 557 399 411 857 557 681 b 151 -196 557 117 411 -60 "},"*":{"ha":590,"x_min":0,"x_max":0,"o":"m 257 654 l 114 532 l 39 660 l 215 722 l 39 785 l 114 914 l 257 792 l 222 975 l 368 975 l 333 792 l 476 914 l 551 785 l 375 722 l 551 660 l 476 532 l 333 654 l 368 471 l 222 471 "},"+":{"ha":889,"x_min":0,"x_max":0,"o":"m 324 372 l 89 372 l 89 606 l 324 606 l 324 844 l 565 844 l 565 606 l 800 606 l 800 372 l 565 372 l 565 133 l 324 133 "},",":{"ha":394,"x_min":0,"x_max":0,"o":"m 28 -128 b 167 3 121 -117 169 -72 l 60 3 l 60 274 l 335 274 l 335 53 b 49 -229 335 -153 222 -224 "},"-":{"ha":567,"x_min":0,"x_max":0,"o":"m 56 550 l 511 550 l 511 318 l 56 318 "},".":{"ha":394,"x_min":0,"x_max":0,"o":"m 60 271 l 335 271 l 335 0 l 60 0 "},"/":{"ha":743,"x_min":0,"x_max":0,"o":"m 563 1108 l 776 1108 l 161 -178 l -53 -178 "},":":{"ha":408,"x_min":0,"x_max":0,"o":"m 67 751 l 342 751 l 342 481 l 67 481 m 67 271 l 342 271 l 342 0 l 67 0 "},";":{"ha":408,"x_min":0,"x_max":0,"o":"m 67 751 l 342 751 l 342 481 l 67 481 m 35 -131 b 174 0 128 -119 176 -75 l 67 0 l 67 271 l 342 271 l 342 50 b 56 -232 342 -156 229 -226 "},"<":{"ha":894,"x_min":0,"x_max":0,"o":"m 90 365 l 90 611 l 781 886 l 781 640 l 326 489 l 781 338 l 781 90 "},"=":{"ha":888,"x_min":0,"x_max":0,"o":"m 103 792 l 785 792 l 785 560 l 103 560 m 103 418 l 785 418 l 785 186 l 103 186 "},">":{"ha":894,"x_min":0,"x_max":0,"o":"m 114 336 l 568 488 l 114 639 l 114 886 l 804 611 l 804 365 l 114 90 "},"?":{"ha":750,"x_min":0,"x_max":0,"o":"m 231 549 l 242 561 b 460 672 403 575 460 613 l 460 674 b 356 750 460 721 422 750 b 153 658 290 750 218 717 l 14 842 b 374 988 99 926 214 988 b 721 696 578 988 721 876 l 721 693 b 450 406 721 518 604 443 l 433 317 l 265 317 m 208 236 l 482 236 l 482 0 l 208 0 "},"@":{"ha":1340,"x_min":0,"x_max":0,"o":"m 682 -225 b 63 382 324 -225 63 46 b 678 992 63 717 328 992 b 1276 451 1022 992 1276 736 b 981 79 1276 200 1132 79 b 767 185 864 79 800 128 b 563 82 714 124 649 82 b 308 361 418 82 308 192 b 615 722 308 560 450 722 b 801 619 706 722 765 676 l 818 704 l 1033 671 l 969 313 b 964 251 967 292 964 272 b 1054 169 964 206 997 169 b 1218 451 1144 169 1218 267 b 678 936 1218 708 994 936 b 121 382 354 936 121 689 b 682 -169 121 72 351 -169 b 1022 -76 819 -169 918 -137 l 1050 -121 b 682 -225 943 -186 826 -225 m 632 269 b 765 429 706 269 765 340 b 664 535 765 494 722 535 b 531 378 589 535 531 465 b 632 269 531 308 574 269 "},"A":{"ha":1104,"x_min":0,"x_max":0,"o":"m 422 979 l 682 979 l 1096 0 l 807 0 l 736 174 l 361 174 l 292 0 l 8 0 m 658 383 l 550 660 l 440 383 "},"B":{"ha":993,"x_min":0,"x_max":0,"o":"m 86 972 l 585 972 b 850 885 707 972 793 942 b 913 728 889 846 913 794 l 913 725 b 763 508 913 613 849 546 b 956 271 881 469 956 403 l 956 268 b 588 0 956 101 819 0 l 86 0 m 518 585 b 646 669 600 585 646 613 l 646 672 b 524 756 646 725 604 756 l 349 756 l 349 585 m 557 217 b 686 306 639 217 686 249 l 686 308 b 554 396 686 361 644 396 l 349 396 l 349 217 "},"C":{"ha":1014,"x_min":0,"x_max":0,"o":"m 554 -19 b 53 483 276 -19 53 193 l 53 486 b 565 992 53 769 271 992 b 978 789 764 992 892 908 l 775 632 b 563 746 719 701 656 746 b 331 489 426 746 331 631 l 331 486 b 563 226 331 340 426 226 b 782 344 664 226 724 274 l 985 200 b 554 -19 893 74 769 -19 "},"D":{"ha":1063,"x_min":0,"x_max":0,"o":"m 86 972 l 461 972 b 1010 492 808 972 1010 772 l 1010 489 b 456 0 1010 208 806 0 l 86 0 m 465 239 b 733 485 626 239 733 328 l 733 488 b 465 733 733 643 626 733 l 356 733 l 356 239 "},"E":{"ha":926,"x_min":0,"x_max":0,"o":"m 86 972 l 868 972 l 868 743 l 353 743 l 353 596 l 819 596 l 819 383 l 353 383 l 353 229 l 875 229 l 875 0 l 86 0 "},"F":{"ha":900,"x_min":0,"x_max":0,"o":"m 86 972 l 864 972 l 864 736 l 356 736 l 356 571 l 815 571 l 815 347 l 356 347 l 356 0 l 86 0 "},"G":{"ha":1068,"x_min":0,"x_max":0,"o":"m 582 -19 b 53 483 279 -19 53 189 l 53 486 b 576 992 53 769 275 992 b 971 850 747 992 868 939 l 813 660 b 578 751 743 718 674 751 b 329 485 438 751 329 633 l 329 482 b 593 213 329 325 439 213 b 749 253 658 213 708 226 l 749 371 l 557 371 l 557 568 l 1004 568 l 1004 131 b 582 -19 901 46 758 -19 "},"H":{"ha":1057,"x_min":0,"x_max":0,"o":"m 86 972 l 356 972 l 356 608 l 701 608 l 701 972 l 971 972 l 971 0 l 701 0 l 701 369 l 356 369 l 356 0 l 86 0 "},"I":{"ha":454,"x_min":0,"x_max":0,"o":"m 92 972 l 363 972 l 363 0 l 92 0 "},"J":{"ha":783,"x_min":0,"x_max":0,"o":"m 347 -17 b 6 147 178 -17 74 54 l 179 311 b 331 221 226 254 271 221 b 442 357 399 221 442 267 l 442 972 l 710 972 l 710 356 b 614 82 710 233 679 147 b 347 -17 550 18 458 -17 "},"K":{"ha":1014,"x_min":0,"x_max":0,"o":"m 86 972 l 356 972 l 356 578 l 690 972 l 1010 972 l 642 554 l 1022 0 l 699 0 l 454 361 l 356 251 l 356 0 l 86 0 "},"L":{"ha":856,"x_min":0,"x_max":0,"o":"m 86 972 l 356 972 l 356 236 l 826 236 l 826 0 l 86 0 "},"M":{"ha":1206,"x_min":0,"x_max":0,"o":"m 86 972 l 371 972 l 603 596 l 835 972 l 1119 972 l 1119 0 l 851 0 l 851 558 l 603 178 l 597 178 l 350 556 l 350 0 l 86 0 "},"N":{"ha":1090,"x_min":0,"x_max":0,"o":"m 86 972 l 338 972 l 738 458 l 738 972 l 1004 972 l 1004 0 l 768 0 l 353 533 l 353 0 l 86 0 "},"O":{"ha":1154,"x_min":0,"x_max":0,"o":"m 575 -19 b 53 483 275 -19 53 204 l 53 486 b 578 992 53 765 278 992 b 1100 489 878 992 1100 768 l 1100 486 b 575 -19 1100 207 875 -19 m 578 224 b 825 483 726 224 825 343 l 825 486 b 575 749 825 626 724 749 b 329 489 428 749 329 629 l 329 486 b 578 224 329 346 431 224 "},"P":{"ha":935,"x_min":0,"x_max":0,"o":"m 86 972 l 503 972 b 907 631 749 972 907 846 l 907 628 b 489 278 907 399 731 278 l 356 278 l 356 0 l 86 0 m 483 489 b 638 615 579 489 638 539 l 638 618 b 482 746 638 701 579 746 l 356 746 l 356 489 "},"Q":{"ha":1154,"x_min":0,"x_max":0,"o":"m 871 67 b 575 -19 788 13 686 -19 b 53 483 275 -19 53 204 l 53 486 b 578 992 53 765 278 992 b 1100 489 878 992 1100 768 l 1100 486 b 1014 207 1100 383 1069 286 l 1114 122 l 978 -29 m 578 219 b 676 238 614 219 647 226 l 542 353 l 678 506 l 810 386 b 826 481 821 415 826 447 l 826 483 b 575 749 826 625 725 749 b 329 486 428 749 329 626 l 329 483 b 578 219 329 343 429 219 "},"R":{"ha":999,"x_min":0,"x_max":0,"o":"m 86 972 l 546 972 b 863 867 694 972 797 933 b 949 640 919 811 949 736 l 949 638 b 749 339 949 489 869 390 l 981 0 l 669 0 l 474 294 l 471 294 l 356 294 l 356 0 l 86 0 m 533 506 b 678 621 625 506 678 550 l 678 624 b 532 739 678 700 622 739 l 356 739 l 356 506 "},"S":{"ha":906,"x_min":0,"x_max":0,"o":"m 468 -17 b 13 144 296 -17 132 38 l 163 324 b 478 207 258 247 365 207 b 589 274 550 207 589 232 l 589 276 b 425 369 589 317 557 339 b 58 675 218 417 58 475 l 58 678 b 435 989 58 858 201 989 b 835 860 600 989 729 944 l 700 669 b 428 765 611 732 514 765 b 331 703 363 765 331 738 l 331 700 b 499 606 331 656 364 636 b 861 303 722 557 861 485 l 861 300 b 468 -17 861 101 704 -17 "},"T":{"ha":917,"x_min":0,"x_max":0,"o":"m 324 736 l 32 736 l 32 972 l 885 972 l 885 736 l 593 736 l 593 0 l 324 0 "},"U":{"ha":1053,"x_min":0,"x_max":0,"o":"m 524 -18 b 74 426 247 -18 74 122 l 74 972 l 347 972 l 347 432 b 526 225 347 292 418 225 b 706 425 635 225 706 289 l 706 972 l 979 972 l 979 433 b 524 -18 979 119 800 -18 "},"V":{"ha":1056,"x_min":0,"x_max":0,"o":"m 8 972 l 310 972 l 531 357 l 751 972 l 1047 972 l 653 -7 l 403 -7 "},"W":{"ha":1551,"x_min":0,"x_max":0,"o":"m 21 972 l 306 972 l 475 410 l 663 975 l 894 975 l 1082 410 l 1251 972 l 1531 972 l 1206 -7 l 971 -7 l 775 553 l 581 -7 l 346 -7 "},"X":{"ha":1017,"x_min":0,"x_max":0,"o":"m 349 494 l 29 972 l 339 972 l 511 699 l 685 972 l 988 972 l 668 497 l 1001 0 l 692 0 l 506 293 l 318 0 l 15 0 "},"Y":{"ha":1004,"x_min":0,"x_max":0,"o":"m 367 364 l -3 972 l 304 972 l 504 618 l 706 972 l 1007 972 l 638 368 l 638 0 l 367 0 "},"Z":{"ha":969,"x_min":0,"x_max":0,"o":"m 56 196 l 543 744 l 72 744 l 72 972 l 915 972 l 915 776 l 428 228 l 915 228 l 915 0 l 56 0 "},"[":{"ha":635,"x_min":0,"x_max":0,"o":"m 92 972 l 572 972 l 572 793 l 328 793 l 328 -1 l 572 -1 l 572 -181 l 92 -181 "},"\\":{"ha":743,"x_min":0,"x_max":0,"o":"m -33 1108 l 181 1108 l 796 -178 l 582 -178 "},"]":{"ha":635,"x_min":0,"x_max":0,"o":"m 63 -1 l 307 -1 l 307 793 l 63 793 l 63 972 l 543 972 l 543 -181 l 63 -181 "},"^":{"ha":694,"x_min":0,"x_max":0,"o":"m 258 971 l 436 971 l 636 685 l 451 685 l 346 819 l 240 685 l 58 685 "},"_":{"ha":833,"x_min":0,"x_max":0,"o":"m -3 -61 l 836 -61 l 836 -222 l -3 -222 "},"‘":{"ha":394,"x_min":0,"x_max":0,"o":"m 56 697 b 340 979 56 903 167 974 l 363 878 b 224 747 269 867 219 822 l 329 747 l 329 476 l 56 476 "},"a":{"ha":832,"x_min":0,"x_max":0,"o":"m 286 -17 b 33 215 143 -17 33 65 l 33 218 b 328 454 33 374 151 454 b 508 425 397 454 465 440 l 508 438 b 358 560 508 515 460 560 b 151 518 279 560 218 544 l 97 704 b 401 763 182 739 272 763 b 688 671 536 763 628 731 b 768 432 744 615 768 538 l 768 0 l 507 0 l 507 78 b 286 -17 456 21 385 -17 m 381 149 b 511 272 457 149 511 197 l 511 307 b 408 326 485 318 447 326 b 288 233 332 326 288 289 l 288 231 b 381 149 288 179 326 149 "},"b":{"ha":939,"x_min":0,"x_max":0,"o":"m 564 -17 b 335 92 450 -17 383 35 l 335 0 l 71 0 l 71 1014 l 335 1014 l 335 651 b 563 768 386 714 450 768 b 896 379 742 768 896 619 l 896 376 b 564 -17 896 132 742 -17 m 482 204 b 636 375 568 204 636 274 l 636 378 b 482 547 636 476 568 547 b 329 378 397 547 329 476 l 329 375 b 482 204 329 275 397 204 "},"c":{"ha":790,"x_min":0,"x_max":0,"o":"m 433 -18 b 40 372 207 -18 40 160 l 40 375 b 443 767 40 588 206 767 b 764 599 597 767 700 700 l 585 465 b 444 544 549 515 508 544 b 297 378 360 544 297 469 l 297 375 b 447 204 297 278 358 204 b 592 282 510 204 550 233 l 768 154 b 433 -18 699 51 599 -18 "},"d":{"ha":939,"x_min":0,"x_max":0,"o":"m 375 -17 b 43 372 197 -17 43 132 l 43 375 b 374 768 43 619 196 768 b 604 660 488 768 554 717 l 604 1014 l 868 1014 l 868 0 l 604 0 l 604 100 b 375 -17 553 38 488 -17 m 456 204 b 608 375 540 204 608 275 l 608 378 b 456 547 608 476 540 547 b 301 378 371 547 301 478 l 301 375 b 456 204 301 275 371 204 "},"e":{"ha":840,"x_min":0,"x_max":0,"o":"m 443 -18 b 40 372 207 -18 40 139 l 40 375 b 419 768 40 594 197 768 b 799 357 679 768 799 578 b 797 303 799 340 799 321 l 294 303 b 457 179 315 221 375 179 b 624 256 519 179 569 203 l 769 135 b 443 -18 697 43 593 -18 m 551 438 b 421 574 542 521 493 574 b 290 438 351 574 304 519 "},"f":{"ha":561,"x_min":0,"x_max":0,"o":"m 118 540 l 31 540 l 31 747 l 118 747 l 118 764 b 182 958 118 850 138 914 b 378 1024 228 1004 289 1024 b 550 1003 458 1024 508 1015 l 550 817 b 451 832 519 826 489 832 b 376 761 403 832 376 810 l 376 743 l 549 743 l 549 540 l 381 540 l 381 0 l 118 0 "},"g":{"ha":939,"x_min":0,"x_max":0,"o":"m 440 -225 b 64 -139 294 -225 172 -194 l 149 36 b 411 -35 229 -8 310 -35 b 608 150 543 -35 608 31 l 608 179 b 376 67 556 118 486 67 b 43 415 192 67 43 200 l 43 418 b 368 768 43 635 194 768 b 604 663 481 768 547 722 l 604 751 l 868 751 l 868 181 b 771 -119 868 43 838 -53 b 440 -225 703 -187 597 -225 m 456 269 b 608 415 544 269 608 332 l 608 418 b 456 563 608 501 544 563 b 301 417 365 563 301 500 l 301 414 b 456 269 301 331 365 269 "},"h":{"ha":881,"x_min":0,"x_max":0,"o":"m 71 1014 l 335 1014 l 335 649 b 560 768 383 711 453 768 b 815 492 719 768 815 663 l 815 0 l 551 0 l 551 407 b 446 533 551 489 508 533 b 335 407 382 533 335 489 l 335 0 l 71 0 "},"i":{"ha":417,"x_min":0,"x_max":0,"o":"m 71 1014 l 346 1014 l 346 819 l 71 819 m 76 751 l 340 751 l 340 0 l 76 0 "},"j":{"ha":419,"x_min":0,"x_max":0,"o":"m 71 1014 l 346 1014 l 346 819 l 71 819 m 72 -226 b -36 -217 31 -226 -4 -221 l -36 -42 b -1 -43 -25 -43 -12 -43 b 76 44 50 -43 76 -21 l 76 751 l 340 751 l 340 33 b 72 -226 340 -157 243 -226 "},"k":{"ha":838,"x_min":0,"x_max":0,"o":"m 71 1014 l 335 1014 l 335 500 l 539 751 l 838 751 l 576 450 l 844 0 l 554 0 l 403 256 l 335 176 l 335 0 l 71 0 "},"l":{"ha":417,"x_min":0,"x_max":0,"o":"m 76 1014 l 340 1014 l 340 0 l 76 0 "},"m":{"ha":1349,"x_min":0,"x_max":0,"o":"m 71 751 l 335 751 l 335 649 b 558 768 383 711 453 768 b 775 646 658 768 735 724 b 1026 768 840 721 917 768 b 1283 493 1186 768 1283 668 l 1283 0 l 1019 0 l 1019 408 b 917 533 1019 490 979 533 b 808 408 854 533 808 490 l 808 0 l 544 0 l 544 408 b 442 533 544 490 504 533 b 335 408 379 533 335 490 l 335 0 l 71 0 "},"n":{"ha":881,"x_min":0,"x_max":0,"o":"m 71 751 l 335 751 l 335 646 b 560 768 383 708 453 768 b 815 492 719 768 815 663 l 815 0 l 551 0 l 551 407 b 446 533 551 489 508 533 b 335 407 382 533 335 489 l 335 0 l 71 0 "},"o":{"ha":911,"x_min":0,"x_max":0,"o":"m 454 -18 b 40 372 214 -18 40 158 l 40 375 b 457 768 40 589 215 768 b 871 378 697 768 871 592 l 871 375 b 454 -18 871 161 696 -18 m 457 206 b 614 372 553 206 614 282 l 614 375 b 454 544 614 467 547 544 b 297 378 358 544 297 468 l 297 375 b 457 206 297 283 364 206 "},"p":{"ha":939,"x_min":0,"x_max":0,"o":"m 71 751 l 335 751 l 335 651 b 563 768 386 714 450 768 b 896 379 742 768 896 619 l 896 376 b 564 -17 896 132 742 -17 b 335 92 450 -17 383 35 l 335 -222 l 71 -222 m 482 204 b 636 375 568 204 636 274 l 636 378 b 482 547 636 476 568 547 b 329 378 397 547 329 476 l 329 375 b 482 204 329 275 397 204 "},"q":{"ha":939,"x_min":0,"x_max":0,"o":"m 604 100 b 375 -17 553 38 488 -17 b 43 372 197 -17 43 132 l 43 375 b 374 768 43 619 196 768 b 604 660 488 768 554 717 l 604 751 l 868 751 l 868 -222 l 604 -222 m 456 204 b 608 375 540 204 608 275 l 608 378 b 456 547 608 476 540 547 b 301 378 371 547 301 478 l 301 375 b 456 204 301 275 371 204 "},"r":{"ha":594,"x_min":0,"x_max":0,"o":"m 71 751 l 335 751 l 335 600 b 572 764 378 703 447 769 l 572 486 l 550 486 b 335 233 413 486 335 407 l 335 0 l 71 0 "},"s":{"ha":714,"x_min":0,"x_max":0,"o":"m 369 -17 b 14 94 243 -17 118 19 l 113 254 b 371 168 199 197 293 168 b 438 208 417 168 438 182 l 438 211 b 317 275 438 240 396 253 b 50 515 168 314 50 364 l 50 518 b 351 767 50 678 178 767 b 661 679 461 767 575 735 l 571 513 b 349 582 493 556 408 582 b 288 546 308 582 288 567 l 288 543 b 410 476 288 514 331 500 b 676 238 558 435 676 383 l 676 235 b 369 -17 676 69 553 -17 "},"t":{"ha":599,"x_min":0,"x_max":0,"o":"m 369 -15 b 117 233 211 -15 117 54 l 117 539 l 28 539 l 28 751 l 117 751 l 117 942 l 381 942 l 381 751 l 556 751 l 556 539 l 381 539 l 381 285 b 453 210 381 232 404 210 b 553 235 488 210 521 219 l 553 28 b 369 -15 506 1 443 -15 "},"u":{"ha":881,"x_min":0,"x_max":0,"o":"m 321 -17 b 65 260 161 -17 65 89 l 65 751 l 329 751 l 329 344 b 436 218 329 263 372 218 b 546 344 499 218 546 263 l 546 751 l 810 751 l 810 0 l 546 0 l 546 103 b 321 -17 497 40 428 -17 "},"v":{"ha":868,"x_min":0,"x_max":0,"o":"m 14 751 l 292 751 l 436 313 l 581 751 l 854 751 l 554 -6 l 314 -6 "},"w":{"ha":1196,"x_min":0,"x_max":0,"o":"m 17 751 l 275 751 l 374 374 l 489 754 l 707 754 l 824 371 l 925 751 l 1179 751 l 947 -6 l 719 -6 l 597 385 l 472 -6 l 246 -6 "},"x":{"ha":818,"x_min":0,"x_max":0,"o":"m 264 379 l 15 751 l 300 751 l 411 567 l 522 751 l 801 751 l 554 381 l 807 0 l 524 0 l 407 193 l 289 0 l 11 0 "},"y":{"ha":869,"x_min":0,"x_max":0,"o":"m 293 -226 b 51 -161 200 -226 121 -200 l 133 24 b 249 -17 175 -1 219 -17 b 310 14 275 -17 293 -10 l 15 751 l 292 751 l 442 299 l 583 751 l 854 751 l 579 18 b 293 -226 514 -157 443 -226 "},"z":{"ha":782,"x_min":0,"x_max":0,"o":"m 44 174 l 392 542 l 57 542 l 57 751 l 742 751 l 742 578 l 393 210 l 742 210 l 742 0 l 44 0 "},"{":{"ha":681,"x_min":0,"x_max":0,"o":"m 596 -196 b 229 72 318 -162 229 -81 b 233 175 229 93 233 151 b 69 311 233 281 178 311 l 47 311 l 47 486 l 69 486 b 233 622 178 486 233 517 b 229 725 233 646 229 704 b 596 993 229 878 318 960 l 636 839 b 464 682 488 806 464 768 b 468 585 464 658 468 614 b 313 399 468 483 414 426 b 468 213 414 371 468 314 b 464 115 468 183 464 139 b 636 -42 464 29 488 -8 l 596 -196 "},"|":{"ha":493,"x_min":0,"x_max":0,"o":"m 146 1108 l 347 1108 l 347 -178 l 146 -178 "},"}":{"ha":681,"x_min":0,"x_max":0,"o":"m 44 -42 b 217 115 193 -8 217 29 b 213 213 217 139 213 183 b 368 399 213 314 267 371 b 213 585 267 426 213 483 b 217 682 213 614 217 658 b 44 839 217 768 193 806 l 85 993 b 451 725 363 960 451 878 b 447 622 451 704 447 646 b 611 486 447 517 503 486 l 633 486 l 633 311 l 611 311 b 447 175 503 311 447 281 b 451 72 447 151 451 93 b 85 -196 451 -81 363 -162 "},"~":{"ha":701,"x_min":0,"x_max":0,"o":"m 57 340 b 229 547 88 478 135 547 b 446 493 313 547 401 493 b 517 557 485 493 499 514 l 644 522 b 472 315 614 385 567 315 b 254 369 389 315 300 369 b 185 306 215 369 203 349 "},"¡":{"ha":450,"x_min":0,"x_max":0,"o":"m 88 972 l 363 972 l 363 736 l 88 736 m 75 118 l 156 656 l 294 656 l 375 118 l 375 0 l 75 0 "},"¢":{"ha":799,"x_min":0,"x_max":0,"o":"m 304 128 b 44 490 150 181 44 322 l 44 493 b 439 883 44 710 203 878 l 456 981 l 615 981 l 594 860 b 769 725 674 831 732 781 l 608 601 b 543 657 590 624 569 643 l 479 307 b 611 386 531 314 575 343 l 771 269 b 460 104 704 172 603 108 l 440 -8 l 281 -8 l 304 128 m 414 682 b 274 496 329 669 274 588 l 274 493 b 351 331 274 419 301 361 l 414 682 "},"£":{"ha":888,"x_min":0,"x_max":0,"o":"m 61 160 l 165 200 l 165 365 l 61 365 l 61 554 l 165 554 l 165 625 b 261 893 165 736 199 831 b 526 989 324 956 411 989 b 850 849 678 989 778 929 l 686 669 b 544 749 644 719 601 749 b 433 625 475 749 433 701 l 433 554 l 733 554 l 733 365 l 433 365 l 433 213 l 840 213 l 840 0 l 61 0 "},"⁄":{"ha":696,"x_min":0,"x_max":0,"o":"m 546 1053 l 765 1053 l 119 -136 l -101 -136 "},"¥":{"ha":983,"x_min":0,"x_max":0,"o":"m 358 129 l 103 129 l 103 296 l 358 296 l 358 365 l 103 365 l 103 532 l 294 532 l 6 972 l 311 972 l 494 653 l 678 972 l 978 972 l 688 532 l 881 532 l 881 365 l 625 365 l 625 296 l 881 296 l 881 129 l 625 129 l 625 0 l 358 0 "},"ƒ":{"ha":768,"x_min":0,"x_max":0,"o":"m 154 -14 b 35 0 113 -14 78 -10 l 35 192 b 100 183 61 186 81 183 b 196 274 160 183 183 207 l 228 457 l 143 457 l 143 657 l 263 657 l 281 747 b 583 986 310 910 404 986 b 736 968 642 986 697 979 l 736 774 b 643 786 703 782 669 786 b 535 699 578 786 546 761 l 528 657 l 686 657 l 686 457 l 492 457 l 453 239 b 154 -14 421 54 335 -14 "},"§":{"ha":869,"x_min":0,"x_max":0,"o":"m 429 -18 b 100 92 292 -18 171 29 l 207 243 b 435 161 276 193 360 161 b 510 203 489 161 510 178 l 510 206 b 375 268 510 232 469 249 b 58 471 201 307 58 353 l 58 474 b 185 626 58 556 111 600 b 119 764 143 658 119 707 l 119 767 b 440 990 119 890 226 990 b 769 881 578 990 699 943 l 663 729 b 435 811 593 779 510 811 b 360 769 382 811 360 796 l 360 767 b 494 704 360 742 394 725 b 811 501 668 665 811 621 l 811 499 b 685 346 811 418 758 372 b 750 210 725 315 750 267 l 750 207 b 429 -18 750 83 644 -18 m 538 413 b 608 461 579 413 608 429 l 608 464 b 468 535 608 494 556 514 b 331 560 403 551 358 560 b 260 511 289 560 260 543 l 260 508 b 400 438 260 478 314 458 b 538 413 467 421 511 413 "},"¤":{"ha":947,"x_min":0,"x_max":0,"o":"m 585 -19 b 164 310 360 -19 211 115 l 51 310 l 51 454 l 146 454 b 144 483 144 464 144 474 l 144 486 b 146 524 144 499 144 511 l 51 524 l 51 668 l 168 668 b 586 992 217 850 364 992 b 919 835 738 992 846 929 l 749 675 b 588 761 708 726 660 761 b 436 664 518 761 465 725 l 653 664 l 653 524 l 406 524 b 404 489 404 513 404 500 l 404 486 b 406 454 404 475 404 465 l 653 454 l 653 314 l 433 314 b 593 211 464 250 517 211 b 757 303 664 211 711 247 l 924 146 b 585 -19 844 43 738 -19 "},"'":{"ha":394,"x_min":0,"x_max":0,"o":"m 78 972 l 367 972 l 367 965 l 190 474 l 47 474 "},"“":{"ha":760,"x_min":0,"x_max":0,"o":"m 424 697 b 706 979 424 899 533 974 l 728 878 b 592 747 635 867 589 822 l 694 747 l 694 476 l 424 476 m 56 697 b 338 979 56 899 164 974 l 358 878 b 224 747 265 867 219 822 l 326 747 l 326 476 l 56 476 "},"«":{"ha":876,"x_min":0,"x_max":0,"o":"m 401 367 l 401 378 l 646 703 l 835 610 l 654 372 l 835 136 l 646 42 m 42 339 l 42 406 l 264 703 l 454 610 l 274 372 l 454 136 l 264 42 "},"‹":{"ha":496,"x_min":0,"x_max":0,"o":"m 42 339 l 42 406 l 264 703 l 454 610 l 274 372 l 454 136 l 264 42 "},"›":{"ha":496,"x_min":0,"x_max":0,"o":"m 42 135 l 222 372 l 42 608 l 232 703 l 454 406 l 454 339 l 232 42 "},"ﬁ":{"ha":978,"x_min":0,"x_max":0,"o":"m 632 1014 l 907 1014 l 907 819 l 632 819 m 118 764 b 182 958 118 850 138 914 b 378 1024 228 1004 289 1024 b 550 1003 458 1024 508 1015 l 550 817 b 451 832 519 826 489 832 b 376 761 403 832 376 810 l 376 743 l 549 743 l 549 540 l 381 540 l 381 0 l 118 0 l 118 540 l 31 540 l 31 747 l 118 747 m 638 751 l 901 751 l 901 0 l 638 0 "},"ﬂ":{"ha":978,"x_min":0,"x_max":0,"o":"m 118 540 l 31 540 l 31 747 l 118 747 l 118 764 b 182 958 118 850 138 914 b 378 1024 228 1004 289 1024 b 550 1003 458 1024 508 1015 l 550 817 b 451 832 519 826 489 832 b 376 761 403 832 376 810 l 376 743 l 549 743 l 549 540 l 381 540 l 381 0 l 118 0 m 638 1014 l 901 1014 l 901 0 l 638 0 "},"–":{"ha":733,"x_min":0,"x_max":0,"o":"m 56 547 l 678 547 l 678 321 l 56 321 "},"†":{"ha":569,"x_min":0,"x_max":0,"o":"m 229 685 l 56 667 l 56 811 l 228 793 l 207 972 l 363 972 l 342 793 l 514 811 l 514 667 l 340 685 l 354 310 l 215 310 "},"‡":{"ha":597,"x_min":0,"x_max":0,"o":"m 242 179 l 69 161 l 69 306 l 244 288 l 226 486 l 244 685 l 69 667 l 69 811 l 242 793 l 221 972 l 376 972 l 356 793 l 528 811 l 528 667 l 353 685 l 371 486 l 353 288 l 528 306 l 528 161 l 356 179 l 376 0 l 221 0 "},"·":{"ha":394,"x_min":0,"x_max":0,"o":"m 60 569 l 335 569 l 335 299 l 60 299 "},"¶":{"ha":828,"x_min":0,"x_max":0,"o":"m 471 306 l 442 306 b 31 635 203 306 31 421 l 31 638 b 438 972 31 853 192 972 l 742 972 l 742 0 l 471 0 "},"•":{"ha":694,"x_min":0,"x_max":0,"o":"m 347 254 b 113 488 218 254 113 358 l 113 490 b 347 724 113 619 218 724 b 582 490 476 724 582 619 l 582 488 b 347 254 582 358 476 254 "},"‚":{"ha":394,"x_min":0,"x_max":0,"o":"m 28 -131 b 167 0 121 -119 169 -75 l 60 0 l 60 271 l 335 271 l 335 50 b 49 -232 335 -156 222 -226 "},"„":{"ha":758,"x_min":0,"x_max":0,"o":"m 397 -131 b 532 0 490 -119 536 -75 l 429 0 l 429 271 l 700 271 l 700 50 b 418 -232 700 -153 592 -226 m 28 -131 b 163 0 121 -119 167 -75 l 60 0 l 60 271 l 331 271 l 331 50 b 49 -232 331 -153 222 -226 "},"”":{"ha":760,"x_min":0,"x_max":0,"o":"m 401 571 b 538 701 494 581 540 626 l 433 701 l 433 972 l 704 972 l 704 751 b 424 469 704 549 596 475 m 32 571 b 168 701 125 581 171 626 l 65 701 l 65 972 l 336 972 l 336 751 b 54 469 336 549 228 475 "},"»":{"ha":876,"x_min":0,"x_max":0,"o":"m 424 135 l 604 372 l 424 608 l 613 703 l 835 406 l 835 339 l 613 42 m 42 135 l 222 372 l 42 608 l 232 703 l 475 378 l 475 367 l 232 42 "},"…":{"ha":1167,"x_min":0,"x_max":0,"o":"m 838 267 l 1107 267 l 1107 0 l 838 0 m 449 267 l 718 267 l 718 0 l 449 0 m 60 267 l 329 267 l 329 0 l 60 0 "},"‰":{"ha":1799,"x_min":0,"x_max":0,"o":"m 299 463 b 49 722 149 463 49 579 l 49 725 b 300 986 49 868 147 986 b 550 726 451 986 550 868 l 550 724 b 299 463 550 581 449 463 m 906 972 l 1093 972 l 343 0 l 156 0 m 1499 -14 b 1249 246 1349 -14 1249 104 l 1249 249 b 1500 510 1249 392 1347 510 b 1750 250 1651 510 1750 393 l 1750 247 b 1499 -14 1750 106 1649 -14 m 949 -14 b 699 246 799 -14 699 104 l 699 249 b 950 510 699 392 797 510 b 1200 250 1101 510 1200 393 l 1200 247 b 949 -14 1200 106 1099 -14 m 300 615 b 381 722 347 615 381 661 l 381 725 b 299 833 381 786 346 833 b 218 726 250 833 218 788 l 218 724 b 300 615 218 661 254 615 m 1500 139 b 1581 246 1547 139 1581 185 l 1581 249 b 1499 357 1581 311 1546 357 b 1418 250 1449 357 1418 313 l 1418 247 b 1500 139 1418 186 1454 139 m 950 139 b 1031 246 997 139 1031 185 l 1031 249 b 949 357 1031 311 996 357 b 868 250 899 357 868 313 l 868 247 b 950 139 868 186 904 139 "},"¿":{"ha":750,"x_min":0,"x_max":0,"o":"m 268 972 l 543 972 l 543 736 l 268 736 m 376 -15 b 31 276 174 -15 31 96 l 31 279 b 301 567 31 454 146 529 l 317 656 l 485 656 l 521 424 l 508 411 b 290 300 347 397 290 360 l 290 299 b 396 222 290 251 329 222 b 597 314 460 222 532 256 l 738 131 b 376 -15 653 46 536 -15 "},"`":{"ha":694,"x_min":0,"x_max":0,"o":"m 122 993 l 368 1072 l 513 815 l 326 815 "},"´":{"ha":694,"x_min":0,"x_max":0,"o":"m 326 1072 l 572 993 l 368 815 l 182 815 "},"ˆ":{"ha":694,"x_min":0,"x_max":0,"o":"m 240 1044 l 454 1044 l 632 815 l 463 815 l 346 900 l 229 815 l 63 815 "},"˜":{"ha":694,"x_min":0,"x_max":0,"o":"m 54 840 b 226 1047 83 978 131 1047 b 443 993 310 1047 399 993 b 514 1057 482 993 496 1014 l 640 1022 b 468 815 611 885 564 815 b 251 869 385 815 296 869 b 181 806 213 869 199 849 "},"¯":{"ha":694,"x_min":0,"x_max":0,"o":"m 86 983 l 608 983 l 608 822 l 86 822 "},"˘":{"ha":694,"x_min":0,"x_max":0,"o":"m 347 813 b 74 1044 193 813 86 897 l 228 1044 b 347 964 244 996 278 964 b 467 1044 417 964 450 996 l 621 1044 b 347 813 608 897 501 813 "},"˙":{"ha":694,"x_min":0,"x_max":0,"o":"m 229 1014 l 465 1014 l 465 815 l 229 815 "},"¨":{"ha":694,"x_min":0,"x_max":0,"o":"m 385 1014 l 614 1014 l 614 815 l 385 815 m 81 1014 l 310 1014 l 310 815 l 81 815 "},"˚":{"ha":694,"x_min":0,"x_max":0,"o":"m 347 821 b 163 997 250 821 163 903 l 163 1000 b 347 1175 163 1096 250 1175 b 532 1000 444 1175 532 1096 l 532 997 b 347 821 532 903 444 821 m 347 906 b 440 997 399 906 440 947 l 440 1000 b 347 1090 440 1049 399 1090 b 254 1000 296 1090 254 1049 l 254 997 b 347 906 254 947 296 906 "},"¸":{"ha":694,"x_min":0,"x_max":0,"o":"m 151 -151 l 279 21 l 453 21 l 361 -240 "},"˝":{"ha":694,"x_min":0,"x_max":0,"o":"m 179 1072 l 396 997 l 438 1072 l 668 993 l 469 817 l 299 817 l 381 967 l 214 817 l 42 817 "},"˛":{"ha":694,"x_min":0,"x_max":0,"o":"m 529 -228 b 219 -81 328 -249 219 -190 b 246 14 219 -51 228 -18 l 415 14 b 408 -33 411 -1 408 -17 b 529 -114 408 -82 444 -112 l 529 -228 "},"ˇ":{"ha":694,"x_min":0,"x_max":0,"o":"m 63 1044 l 232 1044 l 349 960 l 465 1044 l 632 1044 l 454 815 l 240 815 "},"—":{"ha":1247,"x_min":0,"x_max":0,"o":"m 56 547 l 1192 547 l 1192 321 l 56 321 "},"Æ":{"ha":1476,"x_min":0,"x_max":0,"o":"m 507 972 l 1417 972 l 1417 743 l 932 743 l 932 596 l 1368 596 l 1368 383 l 932 383 l 932 229 l 1424 229 l 1424 0 l 669 0 l 669 174 l 356 174 l 265 0 l -7 0 m 669 383 l 669 751 l 653 751 l 464 383 "},"ª":{"ha":542,"x_min":0,"x_max":0,"o":"m 200 551 b 61 678 121 551 61 596 l 61 681 b 224 810 61 767 126 810 b 322 794 261 810 299 803 l 322 800 b 239 868 322 843 296 868 b 125 844 196 868 163 858 l 96 947 b 263 979 143 967 192 979 b 421 928 338 979 388 961 b 465 796 453 897 465 854 l 465 560 l 321 560 l 321 604 b 200 551 293 572 254 551 m 57 482 l 472 482 l 472 375 l 57 375 m 251 643 b 324 711 293 643 324 669 l 324 729 b 267 740 308 735 289 740 b 201 690 226 740 201 719 l 201 688 b 251 643 201 660 222 643 "},"Ł":{"ha":915,"x_min":0,"x_max":0,"o":"m 149 340 l 43 310 l 43 550 l 149 581 l 149 972 l 417 972 l 417 661 l 663 733 l 663 492 l 417 419 l 417 236 l 886 236 l 886 0 l 149 0 "},"Ø":{"ha":1154,"x_min":0,"x_max":0,"o":"m 575 -19 b 300 54 474 -19 379 7 l 246 -7 l 42 -7 l 181 149 b 53 483 100 238 53 354 l 53 486 b 578 992 53 765 278 992 b 853 918 681 992 775 965 l 907 979 l 1111 979 l 974 822 b 1100 489 1053 735 1100 618 l 1100 486 b 575 -19 1100 207 875 -19 m 688 728 b 575 754 656 744 618 754 b 325 489 425 754 325 632 l 325 486 b 358 351 325 438 336 392 m 578 218 b 829 483 729 218 829 340 l 829 486 b 796 621 829 535 818 581 l 465 244 b 578 218 499 228 536 218 "},"Œ":{"ha":1497,"x_min":0,"x_max":0,"o":"m 601 0 b 53 481 256 0 53 200 l 53 483 b 607 972 53 765 257 972 l 1438 972 l 1438 743 l 953 743 l 953 596 l 1389 596 l 1389 383 l 953 383 l 953 229 l 1444 229 l 1444 0 l 601 0 m 686 235 l 686 738 l 594 738 b 329 488 436 738 329 644 l 329 485 b 594 235 329 331 436 235 "},"º":{"ha":542,"x_min":0,"x_max":0,"o":"m 269 549 b 46 761 140 549 46 643 l 46 764 b 272 979 46 883 142 979 b 496 767 401 979 496 885 l 496 764 b 269 549 496 644 400 549 m 71 482 l 471 482 l 471 375 l 71 375 m 272 672 b 354 761 322 672 354 711 l 354 764 b 269 857 354 815 319 857 b 188 767 219 857 188 817 l 188 764 b 272 672 188 713 222 672 "},"æ":{"ha":1306,"x_min":0,"x_max":0,"o":"m 313 -17 b 33 215 158 -17 33 61 l 33 218 b 328 454 33 374 151 454 b 508 425 397 454 465 440 l 508 438 b 358 560 508 515 460 560 b 151 518 279 560 218 544 l 97 704 b 401 763 182 739 272 763 b 656 678 524 763 601 732 b 890 768 715 735 794 768 b 1264 357 1142 768 1264 578 b 1261 303 1264 340 1263 321 l 758 303 b 921 179 781 221 840 179 b 1088 256 985 179 1033 203 l 1233 135 b 908 -18 1161 43 1058 -18 b 614 94 788 -18 685 24 b 313 -17 526 28 424 -17 m 1017 438 b 885 574 1007 521 957 574 b 756 438 815 574 768 519 m 385 151 b 536 213 435 151 486 172 b 510 307 524 242 514 274 b 408 326 483 318 446 326 b 288 233 332 326 288 289 l 288 231 b 385 151 288 181 329 151 "},"ı":{"ha":417,"x_min":0,"x_max":0,"o":"m 76 751 l 340 751 l 340 0 l 76 0 "},"ł":{"ha":557,"x_min":0,"x_max":0,"o":"m 147 367 l 33 333 l 33 569 l 147 603 l 147 1014 l 410 1014 l 410 678 l 524 711 l 524 474 l 410 440 l 410 0 l 147 0 "},"ø":{"ha":911,"x_min":0,"x_max":0,"o":"m 454 -18 b 243 35 375 -18 304 1 l 204 -7 l 19 -7 l 135 121 b 40 372 75 189 40 276 l 40 375 b 457 768 40 589 215 768 b 667 715 535 768 607 749 l 707 758 l 892 758 b 776 631 892 758 804 663 b 871 378 836 563 871 475 l 871 375 b 454 -18 871 161 696 -18 m 517 543 b 454 556 499 551 476 556 b 286 378 353 556 286 474 l 286 375 b 300 303 286 350 292 325 m 457 194 b 625 372 558 194 625 276 l 625 375 b 611 447 625 400 619 425 l 396 206 b 457 194 414 199 435 194 "},"œ":{"ha":1407,"x_min":0,"x_max":0,"o":"m 444 -18 b 40 372 217 -18 40 158 l 40 375 b 450 768 40 589 218 768 b 728 656 564 768 661 725 b 990 768 792 726 883 768 b 1365 357 1244 768 1365 578 b 1363 303 1365 340 1364 321 l 861 303 b 1022 179 882 221 942 179 b 1190 256 1086 179 1136 203 l 1336 135 b 1014 -18 1263 43 1160 -18 b 725 94 893 -18 793 24 b 444 -18 657 25 558 -18 m 1118 438 b 988 574 1108 521 1060 574 b 857 438 917 574 871 519 m 453 206 b 607 372 547 206 607 282 l 607 375 b 450 544 607 467 542 544 b 297 378 357 544 297 467 l 297 375 b 453 206 297 283 363 206 "},"ß":{"ha":882,"x_min":0,"x_max":0,"o":"m 426 185 b 583 297 525 190 583 231 l 583 300 b 426 413 583 367 519 404 l 426 553 b 540 701 488 583 540 632 l 540 704 b 444 806 540 767 500 806 b 333 671 379 806 333 758 l 333 0 l 71 0 l 71 665 b 449 1026 71 882 203 1026 b 796 736 665 1026 796 897 l 796 733 b 651 506 796 619 731 546 b 844 269 744 475 844 404 l 844 267 b 426 -4 844 83 669 -18 "},"Ð":{"ha":1132,"x_min":0,"x_max":0,"o":"m 154 383 l 43 383 l 43 596 l 154 596 l 154 972 l 529 972 b 1078 492 876 972 1078 772 l 1078 489 b 524 0 1078 208 874 0 l 154 0 m 533 232 b 801 485 699 232 801 325 l 801 488 b 533 740 801 646 699 740 l 415 740 l 415 596 l 581 596 l 581 383 l 415 383 l 415 232 "},"ð":{"ha":911,"x_min":0,"x_max":0,"o":"m 446 -18 b 44 346 210 -18 44 142 l 44 349 b 375 663 44 524 174 663 b 525 625 435 663 486 649 l 414 774 l 254 713 l 164 836 l 326 892 l 238 1014 l 518 1014 l 547 972 l 685 1024 l 774 900 l 631 851 l 719 726 b 854 363 817 586 854 496 l 854 360 b 446 -18 854 150 696 -18 m 451 203 b 600 344 544 203 600 267 l 600 347 b 449 489 600 424 539 489 b 299 349 356 489 299 426 l 299 346 b 451 203 299 268 361 203 "},"Š":{"ha":906,"x_min":0,"x_max":0,"o":"m 468 -17 b 13 144 296 -17 132 38 l 163 324 b 478 207 258 247 365 207 b 589 274 550 207 589 232 l 589 276 b 425 369 589 317 557 339 b 58 675 218 417 58 475 l 58 678 b 435 989 58 858 201 989 b 835 860 600 989 729 944 l 700 669 b 428 765 611 732 514 765 b 331 703 363 765 331 738 l 331 700 b 499 606 331 656 364 636 b 861 303 722 557 861 485 l 861 300 b 468 -17 861 101 704 -17 m 160 1267 l 329 1267 l 446 1182 l 563 1267 l 729 1267 l 551 1038 l 338 1038 "},"š":{"ha":714,"x_min":0,"x_max":0,"o":"m 369 -17 b 14 94 243 -17 118 19 l 113 254 b 371 168 199 197 293 168 b 438 208 417 168 438 182 l 438 211 b 317 275 438 240 396 253 b 50 515 168 314 50 364 l 50 518 b 351 767 50 678 178 767 b 661 679 461 767 575 735 l 571 513 b 349 582 493 556 408 582 b 288 546 308 582 288 567 l 288 543 b 410 476 288 514 331 500 b 676 238 558 435 676 383 l 676 235 b 369 -17 676 69 553 -17 m 75 1044 l 244 1044 l 361 960 l 478 1044 l 644 1044 l 467 815 l 253 815 "},"Ý":{"ha":1004,"x_min":0,"x_max":0,"o":"m 367 364 l -3 972 l 304 972 l 504 618 l 706 972 l 1007 972 l 638 368 l 638 0 l 367 0 m 535 1292 l 781 1213 l 576 1035 l 390 1035 "},"ý":{"ha":869,"x_min":0,"x_max":0,"o":"m 293 -226 b 51 -161 200 -226 121 -200 l 133 24 b 249 -17 175 -1 219 -17 b 310 14 275 -17 293 -10 l 15 751 l 292 751 l 442 299 l 583 751 l 854 751 l 579 18 b 293 -226 514 -157 443 -226 m 458 1072 l 704 993 l 500 815 l 314 815 "},"Þ":{"ha":947,"x_min":0,"x_max":0,"o":"m 86 972 l 356 972 l 356 833 l 503 833 b 907 496 749 833 907 711 l 907 493 b 489 146 907 263 731 146 l 356 146 l 356 0 l 86 0 m 483 361 b 638 488 579 361 638 411 l 638 490 b 482 617 638 574 579 617 l 356 617 l 356 361 "},"þ":{"ha":939,"x_min":0,"x_max":0,"o":"m 71 1014 l 335 1014 l 335 651 b 563 768 386 714 450 768 b 896 379 742 768 896 619 l 896 376 b 564 -17 896 132 742 -17 b 335 92 450 -17 383 35 l 335 -222 l 71 -222 m 482 204 b 636 375 568 204 636 274 l 636 378 b 482 547 636 476 568 547 b 329 378 397 547 329 476 l 329 375 b 482 204 329 275 397 204 "},"Ž":{"ha":969,"x_min":0,"x_max":0,"o":"m 56 196 l 543 744 l 72 744 l 72 972 l 915 972 l 915 776 l 428 228 l 915 228 l 915 0 l 56 0 m 207 1267 l 376 1267 l 493 1182 l 610 1267 l 776 1267 l 599 1038 l 385 1038 "},"ž":{"ha":782,"x_min":0,"x_max":0,"o":"m 44 174 l 392 542 l 57 542 l 57 751 l 742 751 l 742 578 l 393 210 l 742 210 l 742 0 l 44 0 m 110 1044 l 279 1044 l 396 960 l 513 1044 l 679 1044 l 501 815 l 288 815 "},"Ä":{"ha":1104,"x_min":0,"x_max":0,"o":"m 422 979 l 682 979 l 1096 0 l 807 0 l 736 174 l 361 174 l 292 0 l 8 0 m 658 383 l 550 660 l 440 383 m 590 1236 l 819 1236 l 819 1038 l 590 1038 m 286 1236 l 515 1236 l 515 1038 l 286 1038 "},"Å":{"ha":1104,"x_min":0,"x_max":0,"o":"m 411 954 b 368 1061 385 983 368 1021 l 368 1064 b 553 1239 368 1160 454 1239 b 736 1064 650 1239 736 1160 l 736 1061 b 693 954 736 1021 719 983 l 1096 0 l 807 0 l 736 174 l 361 174 l 292 0 l 8 0 m 553 969 b 644 1061 603 969 644 1011 l 644 1064 b 553 1154 644 1113 603 1154 b 460 1064 501 1154 460 1113 l 460 1061 b 553 969 460 1011 501 969 m 658 383 l 550 660 l 440 383 "},"Ç":{"ha":1014,"x_min":0,"x_max":0,"o":"m 319 -151 l 428 -4 b 53 483 211 50 53 239 l 53 486 b 565 992 53 769 271 992 b 978 789 764 992 892 908 l 775 632 b 563 746 719 701 656 746 b 331 489 426 746 331 631 l 331 486 b 563 226 331 340 426 226 b 782 344 664 226 724 274 l 985 200 b 607 -17 901 85 790 -1 l 529 -240 "},"É":{"ha":926,"x_min":0,"x_max":0,"o":"m 86 972 l 868 972 l 868 743 l 353 743 l 353 596 l 819 596 l 819 383 l 353 383 l 353 229 l 875 229 l 875 0 l 86 0 m 494 1294 l 740 1215 l 536 1038 l 350 1038 "},"Ñ":{"ha":1090,"x_min":0,"x_max":0,"o":"m 86 972 l 338 972 l 738 458 l 738 972 l 1004 972 l 1004 0 l 768 0 l 353 533 l 353 0 l 86 0 m 253 1063 b 425 1269 282 1200 329 1269 b 642 1215 508 1269 597 1215 b 713 1279 681 1215 694 1236 l 839 1244 b 667 1038 810 1107 763 1038 b 450 1092 583 1038 494 1092 b 379 1028 411 1092 397 1071 "},"Ö":{"ha":1154,"x_min":0,"x_max":0,"o":"m 575 -19 b 53 483 275 -19 53 204 l 53 486 b 578 992 53 765 278 992 b 1100 489 878 992 1100 768 l 1100 486 b 575 -19 1100 207 875 -19 m 578 224 b 825 483 726 224 825 343 l 825 486 b 575 749 825 626 724 749 b 329 489 428 749 329 629 l 329 486 b 578 224 329 346 431 224 m 615 1236 l 844 1236 l 844 1038 l 615 1038 m 311 1236 l 540 1236 l 540 1038 l 311 1038 "},"Ü":{"ha":1053,"x_min":0,"x_max":0,"o":"m 524 -18 b 74 426 247 -18 74 122 l 74 972 l 347 972 l 347 432 b 526 225 347 292 418 225 b 706 425 635 225 706 289 l 706 972 l 979 972 l 979 433 b 524 -18 979 119 800 -18 m 564 1236 l 793 1236 l 793 1038 l 564 1038 m 260 1236 l 489 1236 l 489 1038 l 260 1038 "},"á":{"ha":832,"x_min":0,"x_max":0,"o":"m 286 -17 b 33 215 143 -17 33 65 l 33 218 b 328 454 33 374 151 454 b 508 425 397 454 465 440 l 508 438 b 358 560 508 515 460 560 b 151 518 279 560 218 544 l 97 704 b 401 763 182 739 272 763 b 688 671 536 763 628 731 b 768 432 744 615 768 538 l 768 0 l 507 0 l 507 78 b 286 -17 456 21 385 -17 m 381 149 b 511 272 457 149 511 197 l 511 307 b 408 326 485 318 447 326 b 288 233 332 326 288 289 l 288 231 b 381 149 288 179 326 149 m 444 1075 l 690 996 l 486 818 l 300 818 "},"à":{"ha":832,"x_min":0,"x_max":0,"o":"m 286 -17 b 33 215 143 -17 33 65 l 33 218 b 328 454 33 374 151 454 b 508 425 397 454 465 440 l 508 438 b 358 560 508 515 460 560 b 151 518 279 560 218 544 l 97 704 b 401 763 182 739 272 763 b 688 671 536 763 628 731 b 768 432 744 615 768 538 l 768 0 l 507 0 l 507 78 b 286 -17 456 21 385 -17 m 381 149 b 511 272 457 149 511 197 l 511 307 b 408 326 485 318 447 326 b 288 233 332 326 288 289 l 288 231 b 381 149 288 179 326 149 m 146 996 l 392 1075 l 536 818 l 350 818 "},"â":{"ha":832,"x_min":0,"x_max":0,"o":"m 286 -17 b 33 215 143 -17 33 65 l 33 218 b 328 454 33 374 151 454 b 508 425 397 454 465 440 l 508 438 b 358 560 508 515 460 560 b 151 518 279 560 218 544 l 97 704 b 401 763 182 739 272 763 b 688 671 536 763 628 731 b 768 432 744 615 768 538 l 768 0 l 507 0 l 507 78 b 286 -17 456 21 385 -17 m 381 149 b 511 272 457 149 511 197 l 511 307 b 408 326 485 318 447 326 b 288 233 332 326 288 289 l 288 231 b 381 149 288 179 326 149 m 306 1044 l 519 1044 l 697 815 l 528 815 l 411 900 l 294 815 l 128 815 "},"ä":{"ha":832,"x_min":0,"x_max":0,"o":"m 286 -17 b 33 215 143 -17 33 65 l 33 218 b 328 454 33 374 151 454 b 508 425 397 454 465 440 l 508 438 b 358 560 508 515 460 560 b 151 518 279 560 218 544 l 97 704 b 401 763 182 739 272 763 b 688 671 536 763 628 731 b 768 432 744 615 768 538 l 768 0 l 507 0 l 507 78 b 286 -17 456 21 385 -17 m 381 149 b 511 272 457 149 511 197 l 511 307 b 408 326 485 318 447 326 b 288 233 332 326 288 289 l 288 231 b 381 149 288 179 326 149 m 450 1017 l 679 1017 l 679 818 l 450 818 m 146 1017 l 375 1017 l 375 818 l 146 818 "},"ã":{"ha":832,"x_min":0,"x_max":0,"o":"m 286 -17 b 33 215 143 -17 33 65 l 33 218 b 328 454 33 374 151 454 b 508 425 397 454 465 440 l 508 438 b 358 560 508 515 460 560 b 151 518 279 560 218 544 l 97 704 b 401 763 182 739 272 763 b 688 671 536 763 628 731 b 768 432 744 615 768 538 l 768 0 l 507 0 l 507 78 b 286 -17 456 21 385 -17 m 381 149 b 511 272 457 149 511 197 l 511 307 b 408 326 485 318 447 326 b 288 233 332 326 288 289 l 288 231 b 381 149 288 179 326 149 m 122 840 b 294 1047 151 978 199 1047 b 511 993 378 1047 467 993 b 582 1057 550 993 564 1014 l 708 1022 b 536 815 679 885 632 815 b 319 869 453 815 364 869 b 249 806 281 869 267 849 "},"å":{"ha":832,"x_min":0,"x_max":0,"o":"m 286 -17 b 33 215 143 -17 33 65 l 33 218 b 328 454 33 374 151 454 b 508 425 397 454 465 440 l 508 438 b 358 560 508 515 460 560 b 151 518 279 560 218 544 l 97 704 b 401 763 182 739 272 763 b 688 671 536 763 628 731 b 768 432 744 615 768 538 l 768 0 l 507 0 l 507 78 b 286 -17 456 21 385 -17 m 381 149 b 511 272 457 149 511 197 l 511 307 b 408 326 485 318 447 326 b 288 233 332 326 288 289 l 288 231 b 381 149 288 179 326 149 m 413 821 b 228 997 315 821 228 903 l 228 1000 b 413 1175 228 1096 315 1175 b 597 1000 510 1175 597 1096 l 597 997 b 413 821 597 903 510 821 m 413 906 b 506 997 464 906 506 947 l 506 1000 b 413 1090 506 1049 464 1090 b 319 1000 361 1090 319 1049 l 319 997 b 413 906 319 947 361 906 "},"ç":{"ha":790,"x_min":0,"x_max":0,"o":"m 196 -151 l 308 1 b 40 372 149 53 40 200 l 40 375 b 443 767 40 588 206 767 b 764 599 597 767 700 700 l 585 465 b 444 544 549 515 508 544 b 297 378 360 544 297 469 l 297 375 b 447 204 297 278 358 204 b 592 282 510 204 550 233 l 768 154 b 485 -15 706 63 621 -3 l 406 -240 "},"é":{"ha":840,"x_min":0,"x_max":0,"o":"m 443 -18 b 40 372 207 -18 40 139 l 40 375 b 419 768 40 594 197 768 b 799 357 679 768 799 578 b 797 303 799 340 799 321 l 294 303 b 457 179 315 221 375 179 b 624 256 519 179 569 203 l 769 135 b 443 -18 697 43 593 -18 m 551 438 b 421 574 542 521 493 574 b 290 438 351 574 304 519 m 461 1075 l 707 996 l 503 818 l 317 818 "},"è":{"ha":840,"x_min":0,"x_max":0,"o":"m 443 -18 b 40 372 207 -18 40 139 l 40 375 b 419 768 40 594 197 768 b 799 357 679 768 799 578 b 797 303 799 340 799 321 l 294 303 b 457 179 315 221 375 179 b 624 256 519 179 569 203 l 769 135 b 443 -18 697 43 593 -18 m 551 438 b 421 574 542 521 493 574 b 290 438 351 574 304 519 m 135 996 l 381 1075 l 525 818 l 339 818 "},"ê":{"ha":840,"x_min":0,"x_max":0,"o":"m 443 -18 b 40 372 207 -18 40 139 l 40 375 b 419 768 40 594 197 768 b 799 357 679 768 799 578 b 797 303 799 340 799 321 l 294 303 b 457 179 315 221 375 179 b 624 256 519 179 569 203 l 769 135 b 443 -18 697 43 593 -18 m 551 438 b 421 574 542 521 493 574 b 290 438 351 574 304 519 m 314 1042 l 528 1042 l 706 813 l 536 813 l 419 897 l 303 813 l 136 813 "},"ë":{"ha":840,"x_min":0,"x_max":0,"o":"m 443 -18 b 40 372 207 -18 40 139 l 40 375 b 419 768 40 594 197 768 b 799 357 679 768 799 578 b 797 303 799 340 799 321 l 294 303 b 457 179 315 221 375 179 b 624 256 519 179 569 203 l 769 135 b 443 -18 697 43 593 -18 m 551 438 b 421 574 542 521 493 574 b 290 438 351 574 304 519 m 458 1014 l 688 1014 l 688 815 l 458 815 m 154 1014 l 383 1014 l 383 815 l 154 815 "},"í":{"ha":417,"x_min":0,"x_max":0,"o":"m 76 751 l 340 751 l 340 0 l 76 0 m 246 1072 l 492 993 l 288 815 l 101 815 "},"ì":{"ha":417,"x_min":0,"x_max":0,"o":"m 76 751 l 340 751 l 340 0 l 76 0 m -72 993 l 175 1072 l 319 815 l 133 815 "},"î":{"ha":417,"x_min":0,"x_max":0,"o":"m 76 751 l 340 751 l 340 0 l 76 0 m 103 1044 l 317 1044 l 494 815 l 325 815 l 208 900 l 92 815 l -75 815 "},"ï":{"ha":417,"x_min":0,"x_max":0,"o":"m 76 751 l 340 751 l 340 0 l 76 0 m 247 1014 l 476 1014 l 476 815 l 247 815 m -57 1014 l 172 1014 l 172 815 l -57 815 "},"ñ":{"ha":881,"x_min":0,"x_max":0,"o":"m 71 751 l 335 751 l 335 646 b 560 768 383 708 453 768 b 815 492 719 768 815 663 l 815 0 l 551 0 l 551 407 b 446 533 551 489 508 533 b 335 407 382 533 335 489 l 335 0 l 71 0 m 154 840 b 326 1047 183 978 231 1047 b 543 993 410 1047 499 993 b 614 1057 582 993 596 1014 l 740 1022 b 568 815 711 885 664 815 b 351 869 485 815 396 869 b 281 806 313 869 299 849 "},"ó":{"ha":911,"x_min":0,"x_max":0,"o":"m 454 -18 b 40 372 214 -18 40 158 l 40 375 b 457 768 40 589 215 768 b 871 378 697 768 871 592 l 871 375 b 454 -18 871 161 696 -18 m 457 206 b 614 372 553 206 614 282 l 614 375 b 454 544 614 467 547 544 b 297 378 358 544 297 468 l 297 375 b 457 206 297 283 364 206 m 499 1075 l 744 996 l 540 818 l 354 818 "},"ò":{"ha":911,"x_min":0,"x_max":0,"o":"m 454 -18 b 40 372 214 -18 40 158 l 40 375 b 457 768 40 589 215 768 b 871 378 697 768 871 592 l 871 375 b 454 -18 871 161 696 -18 m 457 206 b 614 372 553 206 614 282 l 614 375 b 454 544 614 467 547 544 b 297 378 358 544 297 468 l 297 375 b 457 206 297 283 364 206 m 167 996 l 413 1075 l 557 818 l 371 818 "},"ô":{"ha":911,"x_min":0,"x_max":0,"o":"m 454 -18 b 40 372 214 -18 40 158 l 40 375 b 457 768 40 589 215 768 b 871 378 697 768 871 592 l 871 375 b 454 -18 871 161 696 -18 m 457 206 b 614 372 553 206 614 282 l 614 375 b 454 544 614 467 547 544 b 297 378 358 544 297 468 l 297 375 b 457 206 297 283 364 206 m 349 1042 l 563 1042 l 740 813 l 571 813 l 454 897 l 338 813 l 171 813 "},"ö":{"ha":911,"x_min":0,"x_max":0,"o":"m 454 -18 b 40 372 214 -18 40 158 l 40 375 b 457 768 40 589 215 768 b 871 378 697 768 871 592 l 871 375 b 454 -18 871 161 696 -18 m 457 206 b 614 372 553 206 614 282 l 614 375 b 454 544 614 467 547 544 b 297 378 358 544 297 468 l 297 375 b 457 206 297 283 364 206 m 493 1014 l 722 1014 l 722 815 l 493 815 m 189 1014 l 418 1014 l 418 815 l 189 815 "},"õ":{"ha":911,"x_min":0,"x_max":0,"o":"m 454 -18 b 40 372 214 -18 40 158 l 40 375 b 457 768 40 589 215 768 b 871 378 697 768 871 592 l 871 375 b 454 -18 871 161 696 -18 m 457 206 b 614 372 553 206 614 282 l 614 375 b 454 544 614 467 547 544 b 297 378 358 544 297 468 l 297 375 b 457 206 297 283 364 206 m 163 840 b 335 1047 192 978 239 1047 b 551 993 418 1047 507 993 b 622 1057 590 993 604 1014 l 749 1022 b 576 815 719 885 672 815 b 360 869 493 815 404 869 b 289 806 321 869 307 849 "},"ú":{"ha":881,"x_min":0,"x_max":0,"o":"m 321 -17 b 65 260 161 -17 65 89 l 65 751 l 329 751 l 329 344 b 436 218 329 263 372 218 b 546 344 499 218 546 263 l 546 751 l 810 751 l 810 0 l 546 0 l 546 103 b 321 -17 497 40 428 -17 m 461 1072 l 707 993 l 503 815 l 317 815 "},"ù":{"ha":881,"x_min":0,"x_max":0,"o":"m 321 -17 b 65 260 161 -17 65 89 l 65 751 l 329 751 l 329 344 b 436 218 329 263 372 218 b 546 344 499 218 546 263 l 546 751 l 810 751 l 810 0 l 546 0 l 546 103 b 321 -17 497 40 428 -17 m 174 993 l 419 1072 l 564 815 l 378 815 "},"û":{"ha":881,"x_min":0,"x_max":0,"o":"m 321 -17 b 65 260 161 -17 65 89 l 65 751 l 329 751 l 329 344 b 436 218 329 263 372 218 b 546 344 499 218 546 263 l 546 751 l 810 751 l 810 0 l 546 0 l 546 103 b 321 -17 497 40 428 -17 m 333 1044 l 547 1044 l 725 815 l 556 815 l 439 900 l 322 815 l 156 815 "},"ü":{"ha":881,"x_min":0,"x_max":0,"o":"m 321 -17 b 65 260 161 -17 65 89 l 65 751 l 329 751 l 329 344 b 436 218 329 263 372 218 b 546 344 499 218 546 263 l 546 751 l 810 751 l 810 0 l 546 0 l 546 103 b 321 -17 497 40 428 -17 m 478 1014 l 707 1014 l 707 815 l 478 815 m 174 1014 l 403 1014 l 403 815 l 174 815 "},"°":{"ha":656,"x_min":0,"x_max":0,"o":"m 328 489 b 75 733 192 489 75 599 l 75 736 b 328 983 75 871 193 983 b 581 736 461 983 581 871 l 581 733 b 328 489 581 599 464 489 m 328 617 b 444 733 394 617 444 669 l 444 736 b 328 854 444 801 392 854 b 211 736 263 854 211 801 l 211 733 b 328 617 211 669 261 617 "},"®":{"ha":1153,"x_min":0,"x_max":0,"o":"m 575 -19 b 74 483 293 -19 74 210 l 74 486 b 578 992 74 760 296 992 b 1079 489 860 992 1079 763 l 1079 486 b 575 -19 1079 213 857 -19 m 575 36 b 1021 486 829 36 1021 240 l 1021 489 b 578 936 1021 735 831 936 b 132 486 324 936 132 732 l 132 483 b 575 36 132 238 322 36 m 356 768 l 604 768 b 785 708 689 768 747 746 b 831 586 815 678 831 638 l 831 583 b 721 419 831 501 788 447 l 849 233 l 678 233 l 569 396 l 567 396 l 504 396 l 504 233 l 356 233 m 601 511 b 682 574 653 511 682 535 l 682 576 b 600 640 682 619 650 640 l 504 640 l 504 511 "},"©":{"ha":1153,"x_min":0,"x_max":0,"o":"m 575 -19 b 74 483 293 -19 74 210 l 74 486 b 578 992 74 760 296 992 b 1079 489 860 992 1079 763 l 1079 486 b 575 -19 1079 213 857 -19 m 575 36 b 1021 486 829 36 1021 240 l 1021 489 b 578 936 1021 735 831 936 b 132 486 324 936 132 732 l 132 483 b 575 36 132 238 322 36 m 583 217 b 304 490 421 217 304 336 l 304 493 b 588 769 304 644 419 769 b 813 660 697 769 764 725 l 700 571 b 583 633 669 608 635 633 b 458 494 510 633 458 571 l 458 492 b 583 353 458 414 510 353 b 703 417 639 353 671 379 l 817 336 b 583 217 765 267 699 217 "},"™":{"ha":965,"x_min":0,"x_max":0,"o":"m 464 972 l 590 972 l 692 807 l 794 972 l 919 972 l 919 544 l 801 544 l 801 794 l 693 625 l 689 625 l 581 794 l 581 544 l 464 544 m 150 868 l 22 868 l 22 972 l 397 972 l 397 868 l 269 868 l 269 544 l 150 544 "},"±":{"ha":858,"x_min":0,"x_max":0,"o":"m 440 -19 b 22 153 260 -19 122 46 l 190 318 b 426 208 260 249 333 208 b 557 301 508 208 557 249 l 557 304 b 401 389 557 357 508 389 l 300 389 l 300 592 l 399 592 b 536 676 496 592 536 628 l 536 679 b 414 764 536 729 489 764 b 219 658 336 764 275 719 l 53 814 b 438 992 139 915 250 992 b 796 732 654 992 796 881 l 796 729 b 650 504 796 614 736 544 b 821 286 749 471 821 406 l 821 283 b 440 -19 821 110 679 -19 "},"µ":{"ha":1154,"x_min":0,"x_max":0,"o":"m 719 0 b 575 -18 674 -11 625 -18 b 53 483 275 -18 53 204 l 53 486 b 578 992 53 765 278 992 b 1100 489 878 992 1100 768 l 1100 486 b 961 142 1100 353 1049 231 l 1204 -108 l 1204 -122 l 844 -122 m 578 224 b 825 483 726 224 825 343 l 825 486 b 575 749 825 626 724 749 b 329 489 428 749 329 629 l 329 486 b 578 224 329 346 431 224 "},"π":{"ha":1153,"x_min":0,"x_max":0,"o":"m 575 -19 b 74 483 293 -19 74 210 l 74 486 b 578 992 74 760 296 992 b 1079 489 860 992 1079 763 l 1079 486 b 575 -19 1079 213 857 -19 m 575 36 b 1021 486 829 36 1021 240 l 1021 489 b 578 936 1021 735 831 936 b 132 486 324 936 132 732 l 132 483 b 575 36 132 238 322 36 m 379 763 l 608 763 b 832 574 744 763 832 693 l 832 571 b 603 381 832 447 733 381 l 529 381 l 529 228 l 379 228 m 597 497 b 682 565 650 497 682 524 l 682 568 b 597 638 682 614 650 638 l 529 638 l 529 497 "},"Ω":{"ha":1122,"x_min":0,"x_max":0,"o":"m 679 540 l 590 540 l 590 743 l 679 743 l 679 764 b 743 958 679 850 699 914 b 939 1024 788 1004 850 1024 b 1111 1003 1019 1024 1069 1015 l 1111 817 b 1013 832 1081 826 1050 832 b 938 761 964 832 938 810 l 938 743 l 1110 743 l 1110 540 l 942 540 l 942 0 l 679 0 m 118 540 l 31 540 l 31 747 l 118 747 l 118 764 b 182 958 118 850 138 914 b 378 1024 228 1004 289 1024 b 550 1003 458 1024 508 1015 l 550 817 b 451 832 519 826 489 832 b 376 761 403 832 376 810 l 376 743 l 549 743 l 549 540 l 381 540 l 381 0 l 118 0 "},"√":{"ha":1539,"x_min":0,"x_max":0,"o":"m 679 540 l 590 540 l 590 743 l 679 743 l 679 764 b 743 958 679 850 699 914 b 939 1024 788 1004 850 1024 b 1111 1003 1019 1024 1069 1015 l 1111 817 b 1013 832 1081 826 1050 832 b 938 761 964 832 938 810 l 938 743 l 1110 743 l 1110 540 l 942 540 l 942 0 l 679 0 m 118 540 l 31 540 l 31 747 l 118 747 l 118 764 b 182 958 118 850 138 914 b 378 1024 228 1004 289 1024 b 550 1003 458 1024 508 1015 l 550 817 b 451 832 519 826 489 832 b 376 761 403 832 376 810 l 376 743 l 549 743 l 549 540 l 381 540 l 381 0 l 118 0 m 1199 1014 l 1463 1014 l 1463 0 l 1199 0 "},"≈":{"ha":1539,"x_min":0,"x_max":0,"o":"m 1193 1014 l 1468 1014 l 1468 819 l 1193 819 m 679 540 l 590 540 l 590 743 l 679 743 l 679 764 b 743 958 679 850 699 914 b 939 1024 788 1004 850 1024 b 1111 1003 1019 1024 1069 1015 l 1111 817 b 1013 832 1081 826 1050 832 b 938 761 964 832 938 810 l 938 743 l 1110 743 l 1110 540 l 942 540 l 942 0 l 679 0 m 118 540 l 31 540 l 31 747 l 118 747 l 118 764 b 182 958 118 850 138 914 b 378 1024 228 1004 289 1024 b 550 1003 458 1024 508 1015 l 550 817 b 451 832 519 826 489 832 b 376 761 403 832 376 810 l 376 743 l 549 743 l 549 540 l 381 540 l 381 0 l 118 0 m 1199 751 l 1463 751 l 1463 0 l 1199 0 "}," ":{"ha":385,"x_min":0,"x_max":0,"o":""},"À":{"ha":1104,"x_min":0,"x_max":0,"o":"m 422 979 l 682 979 l 1096 0 l 807 0 l 736 174 l 361 174 l 292 0 l 8 0 m 658 383 l 550 660 l 440 383 m 272 1215 l 518 1294 l 663 1038 l 476 1038 "},"Ã":{"ha":1104,"x_min":0,"x_max":0,"o":"m 422 979 l 682 979 l 1096 0 l 807 0 l 736 174 l 361 174 l 292 0 l 8 0 m 658 383 l 550 660 l 440 383 m 260 1063 b 432 1269 289 1200 336 1269 b 649 1215 515 1269 604 1215 b 719 1279 688 1215 701 1236 l 846 1244 b 674 1038 817 1107 769 1038 b 457 1092 590 1038 501 1092 b 386 1028 418 1092 404 1071 "},"Õ":{"ha":1154,"x_min":0,"x_max":0,"o":"m 575 -19 b 53 483 275 -19 53 204 l 53 486 b 578 992 53 765 278 992 b 1100 489 878 992 1100 768 l 1100 486 b 575 -19 1100 207 875 -19 m 578 224 b 825 483 726 224 825 343 l 825 486 b 575 749 825 626 724 749 b 329 489 428 749 329 629 l 329 486 b 578 224 329 346 431 224 m 285 1063 b 457 1269 314 1200 361 1269 b 674 1215 540 1269 629 1215 b 744 1279 713 1215 726 1236 l 871 1244 b 699 1038 842 1107 794 1038 b 482 1092 615 1038 526 1092 b 411 1028 443 1092 429 1071 "},"ÿ":{"ha":869,"x_min":0,"x_max":0,"o":"m 293 -226 b 51 -161 200 -226 121 -200 l 133 24 b 249 -17 175 -1 219 -17 b 310 14 275 -17 293 -10 l 15 751 l 292 751 l 442 299 l 583 751 l 854 751 l 579 18 b 293 -226 514 -157 443 -226 m 471 1014 l 700 1014 l 700 815 l 471 815 m 167 1014 l 396 1014 l 396 815 l 167 815 "},"Ÿ":{"ha":1004,"x_min":0,"x_max":0,"o":"m 367 364 l -3 972 l 304 972 l 504 618 l 706 972 l 1007 972 l 638 368 l 638 0 l 367 0 m 540 1236 l 769 1236 l 769 1038 l 540 1038 m 236 1236 l 465 1236 l 465 1038 l 236 1038 "},"Â":{"ha":1104,"x_min":0,"x_max":0,"o":"m 422 979 l 682 979 l 1096 0 l 807 0 l 736 174 l 361 174 l 292 0 l 8 0 m 658 383 l 550 660 l 440 383 m 446 1267 l 660 1267 l 838 1038 l 668 1038 l 551 1122 l 435 1038 l 268 1038 "},"Ê":{"ha":926,"x_min":0,"x_max":0,"o":"m 86 972 l 868 972 l 868 743 l 353 743 l 353 596 l 819 596 l 819 383 l 353 383 l 353 229 l 875 229 l 875 0 l 86 0 m 372 1267 l 586 1267 l 764 1038 l 594 1038 l 478 1122 l 361 1038 l 194 1038 "},"Á":{"ha":1104,"x_min":0,"x_max":0,"o":"m 422 979 l 682 979 l 1096 0 l 807 0 l 736 174 l 361 174 l 292 0 l 8 0 m 658 383 l 550 660 l 440 383 m 588 1294 l 833 1215 l 629 1038 l 443 1038 "},"Ë":{"ha":926,"x_min":0,"x_max":0,"o":"m 86 972 l 868 972 l 868 743 l 353 743 l 353 596 l 819 596 l 819 383 l 353 383 l 353 229 l 875 229 l 875 0 l 86 0 m 517 1236 l 746 1236 l 746 1038 l 517 1038 m 213 1236 l 442 1236 l 442 1038 l 213 1038 "},"È":{"ha":926,"x_min":0,"x_max":0,"o":"m 86 972 l 868 972 l 868 743 l 353 743 l 353 596 l 819 596 l 819 383 l 353 383 l 353 229 l 875 229 l 875 0 l 86 0 m 231 1215 l 476 1294 l 621 1038 l 435 1038 "},"Í":{"ha":454,"x_min":0,"x_max":0,"o":"m 92 972 l 363 972 l 363 0 l 92 0 m 265 1294 l 511 1215 l 307 1038 l 121 1038 "},"Î":{"ha":454,"x_min":0,"x_max":0,"o":"m 92 972 l 363 972 l 363 0 l 92 0 m 121 1267 l 335 1267 l 513 1038 l 343 1038 l 226 1122 l 110 1038 l -58 1038 "},"Ï":{"ha":454,"x_min":0,"x_max":0,"o":"m 92 972 l 363 972 l 363 0 l 92 0 m 265 1236 l 494 1236 l 494 1038 l 265 1038 m -40 1236 l 190 1236 l 190 1038 l -40 1038 "},"Ì":{"ha":454,"x_min":0,"x_max":0,"o":"m 92 972 l 363 972 l 363 0 l 92 0 m -57 1215 l 189 1294 l 333 1038 l 147 1038 "},"Ó":{"ha":1154,"x_min":0,"x_max":0,"o":"m 575 -19 b 53 483 275 -19 53 204 l 53 486 b 578 992 53 765 278 992 b 1100 489 878 992 1100 768 l 1100 486 b 575 -19 1100 207 875 -19 m 578 224 b 825 483 726 224 825 343 l 825 486 b 575 749 825 626 724 749 b 329 489 428 749 329 629 l 329 486 b 578 224 329 346 431 224 m 626 1294 l 872 1215 l 668 1038 l 482 1038 "},"Ô":{"ha":1154,"x_min":0,"x_max":0,"o":"m 575 -19 b 53 483 275 -19 53 204 l 53 486 b 578 992 53 765 278 992 b 1100 489 878 992 1100 768 l 1100 486 b 575 -19 1100 207 875 -19 m 578 224 b 825 483 726 224 825 343 l 825 486 b 575 749 825 626 724 749 b 329 489 428 749 329 629 l 329 486 b 578 224 329 346 431 224 m 471 1264 l 685 1264 l 863 1035 l 693 1035 l 576 1119 l 460 1035 l 293 1035 "},"":{"ha":1343,"x_min":0,"x_max":0,"o":"m 140 0 l 140 1042 l 1206 1042 l 1206 0 m 1185 -144 l 1181 -117 l 1167 -146 l 1164 -146 l 1150 -117 l 1146 -144 l 1138 -144 l 1146 -97 l 1147 -97 l 1165 -133 l 1183 -97 l 1185 -97 l 1193 -144 m 1119 -121 b 1096 -146 1119 -135 1110 -146 b 1072 -122 1082 -146 1072 -135 b 1097 -97 1072 -108 1082 -97 b 1119 -121 1110 -97 1119 -108 m 1051 -142 b 1038 -146 1049 -144 1043 -146 b 1013 -122 1022 -146 1013 -136 b 1038 -97 1013 -108 1024 -97 b 1053 -101 1043 -97 1049 -99 l 1050 -108 b 1038 -104 1047 -106 1042 -104 b 1021 -121 1029 -104 1021 -111 b 1039 -139 1021 -133 1029 -139 b 1053 -133 1043 -139 1049 -136 m 957 -125 l 957 -144 l 949 -144 l 949 -125 l 929 -99 l 938 -97 l 953 -118 l 965 -99 l 975 -99 m 903 -144 l 903 -124 l 881 -124 l 881 -144 l 872 -144 l 872 -99 l 881 -99 l 881 -117 l 903 -117 l 903 -99 l 911 -99 l 911 -144 m 850 -114 b 826 -131 850 -125 840 -131 l 826 -144 l 818 -144 b 818 -99 818 -142 818 -99 b 850 -114 843 -96 850 -104 m 792 -144 l 786 -133 l 767 -133 l 763 -144 l 754 -144 l 775 -97 l 778 -97 l 800 -144 m 732 -144 l 721 -129 l 714 -129 l 714 -144 l 706 -144 l 706 -99 b 738 -112 731 -96 738 -104 b 728 -126 738 -119 733 -124 l 742 -144 m 682 -140 b 664 -146 678 -143 671 -146 b 639 -122 650 -146 639 -136 b 665 -97 639 -108 650 -97 b 682 -103 671 -97 678 -100 l 679 -110 b 664 -104 676 -107 669 -104 b 647 -122 654 -104 647 -111 b 665 -139 647 -132 656 -139 b 674 -136 668 -139 671 -137 l 674 -126 l 661 -126 l 661 -119 l 682 -119 l 682 -140 m 621 -121 b 597 -146 621 -135 611 -146 b 574 -122 583 -146 574 -135 b 599 -97 574 -108 583 -97 b 621 -121 611 -97 621 -108 m 556 -114 b 532 -131 556 -125 546 -131 l 532 -144 l 524 -144 b 524 -99 524 -142 524 -99 b 556 -114 549 -96 556 -104 m 488 -125 l 488 -144 l 479 -144 l 479 -125 l 460 -99 l 468 -97 l 483 -118 l 496 -99 l 506 -99 m 449 -106 l 432 -106 l 432 -144 l 424 -144 l 424 -106 l 407 -106 l 407 -99 l 449 -99 m 354 -146 l 353 -146 l 338 -114 l 324 -146 l 322 -146 l 306 -99 l 314 -97 l 324 -129 l 338 -97 l 339 -97 l 353 -129 l 363 -99 l 371 -99 m 276 -146 l 275 -146 l 260 -114 l 246 -146 l 244 -146 l 228 -99 l 236 -97 l 246 -129 l 260 -97 l 261 -97 l 275 -129 l 285 -99 l 293 -99 m 199 -146 l 197 -146 l 182 -114 l 168 -146 l 167 -146 l 150 -99 l 158 -97 l 168 -129 l 182 -97 l 183 -97 l 197 -129 l 207 -99 l 215 -99 m 994 -140 b 989 -146 994 -143 993 -146 b 983 -140 986 -146 983 -143 b 989 -135 983 -137 985 -135 b 994 -140 992 -135 994 -137 m 394 -140 b 389 -146 394 -143 393 -146 b 383 -140 386 -146 383 -143 b 389 -135 383 -137 385 -135 b 394 -140 392 -135 394 -137 m 776 953 b 775 969 776 953 776 964 b 751 968 772 968 764 968 b 726 969 738 968 731 968 b 725 953 726 964 725 953 l 728 953 b 742 965 728 953 733 965 b 746 961 746 965 746 964 l 746 929 b 739 922 746 921 739 922 l 739 919 l 763 919 l 763 922 b 756 929 763 922 756 921 l 756 961 b 760 965 756 964 757 965 b 774 953 769 965 774 953 l 776 953 m 700 922 b 692 929 700 922 692 921 l 692 958 b 700 965 692 967 700 965 l 700 968 l 675 968 l 675 967 l 675 965 b 682 958 675 965 682 967 l 682 946 l 658 946 l 658 958 b 665 965 658 967 665 965 l 665 967 l 665 968 l 642 968 l 642 965 b 649 958 642 965 649 967 l 649 929 b 642 922 649 922 642 922 l 642 919 l 665 919 l 665 922 b 658 929 665 922 658 922 l 658 943 l 682 943 l 682 929 b 675 922 682 921 675 922 l 675 919 l 700 919 m 610 922 b 603 929 610 922 603 921 l 603 958 b 610 965 603 967 610 965 l 610 968 l 569 968 l 567 954 l 569 953 b 582 964 569 953 574 964 l 588 964 b 593 960 590 964 593 964 l 593 946 l 588 946 b 579 953 579 946 579 953 l 576 953 l 576 935 l 579 935 b 588 943 579 935 579 943 l 593 943 l 593 928 b 588 924 593 924 590 924 l 582 924 b 568 936 572 924 568 936 l 565 935 l 568 919 l 610 919 l 610 922 m 1149 867 l 197 867 l 197 858 l 1149 858 m 967 750 b 915 803 967 778 942 803 b 883 772 903 803 883 794 b 935 719 883 743 908 719 b 967 750 947 719 967 728 m 818 746 b 799 769 818 756 811 765 b 806 782 803 772 806 776 b 776 803 806 790 797 803 b 758 788 765 803 758 796 b 765 779 758 783 761 779 b 771 783 769 779 771 782 b 767 792 771 789 767 788 b 776 799 767 796 771 799 b 790 782 786 799 790 792 b 788 774 790 776 789 775 b 765 765 775 775 765 774 b 776 757 765 761 771 757 b 792 764 783 757 788 760 b 800 743 797 760 800 753 b 783 724 800 731 793 724 b 767 736 774 724 767 729 b 771 740 767 739 768 740 b 778 738 772 740 774 738 b 783 744 781 738 783 740 b 774 751 783 749 779 751 b 761 738 767 751 761 744 b 783 719 761 728 771 719 b 818 746 807 719 818 732 m 410 746 b 390 769 410 756 403 765 b 397 782 394 772 397 776 b 368 803 397 790 389 803 b 350 788 357 803 350 796 b 357 779 350 783 353 779 b 363 783 361 779 363 782 b 358 792 363 789 358 788 b 368 799 358 796 363 799 b 382 782 378 799 382 792 b 379 774 382 776 381 775 b 357 765 367 775 357 774 b 368 757 357 761 363 757 b 383 764 375 757 379 760 b 392 743 389 760 392 753 b 375 724 392 731 385 724 b 358 736 365 724 358 729 b 363 740 358 739 360 740 b 369 738 364 740 365 738 b 375 744 372 738 375 740 b 365 751 375 749 371 751 b 353 738 358 751 353 744 b 375 719 353 728 363 719 b 410 746 399 719 410 732 m 1139 725 b 1125 736 1139 725 1128 724 l 1115 785 b 1125 796 1113 797 1125 796 l 1124 800 l 1085 800 l 1086 796 b 1099 785 1086 796 1096 797 l 1103 764 l 1069 764 l 1065 785 b 1075 796 1063 797 1075 796 l 1074 800 l 1033 800 l 1035 796 b 1049 785 1035 796 1046 797 l 1058 736 b 1049 725 1061 724 1049 725 l 1050 721 l 1090 721 l 1089 725 b 1075 736 1089 725 1078 724 l 1071 758 l 1104 758 l 1108 736 b 1099 725 1111 724 1099 725 l 1100 721 l 1140 721 l 1139 725 m 690 725 b 676 736 690 725 679 724 l 667 785 b 676 796 664 797 676 796 l 675 800 b 613 800 675 800 629 800 b 613 776 614 794 613 776 l 618 776 b 636 794 618 776 617 794 l 642 794 b 650 786 646 794 649 793 l 654 764 l 649 764 b 632 776 636 764 632 776 l 628 776 l 635 744 l 639 744 b 650 760 639 744 638 760 l 656 760 l 660 736 b 650 725 663 724 650 725 l 651 721 l 692 721 m 281 725 b 267 736 281 725 269 724 l 257 785 b 267 796 254 797 267 796 l 265 800 b 228 800 265 800 244 800 b 200 779 211 800 200 793 b 226 758 200 768 213 760 l 214 736 b 194 725 207 724 194 725 l 196 721 b 222 721 196 721 211 721 l 239 753 b 246 757 240 756 243 757 l 250 736 b 240 725 253 724 240 725 l 242 721 l 282 721 l 281 725 m 556 724 b 538 736 556 728 550 735 b 497 803 524 746 540 803 b 479 789 488 803 479 794 b 486 782 479 785 482 782 b 492 790 492 782 492 785 b 499 799 492 794 493 799 b 528 736 517 799 504 757 b 496 718 508 736 506 718 b 489 724 492 718 489 721 b 492 731 489 728 492 728 b 485 738 492 735 489 738 b 478 728 479 738 478 732 b 499 711 478 719 489 711 b 533 729 524 711 518 729 b 550 719 536 724 543 719 b 556 724 553 719 556 721 m 1149 668 l 197 668 l 197 660 l 1149 660 m 1149 611 l 944 611 l 944 525 l 994 525 l 994 564 l 1010 564 l 1010 474 l 990 474 l 990 428 l 1103 428 l 1103 474 l 1083 474 l 1083 564 l 1099 564 l 1099 525 l 1149 525 m 900 611 l 788 611 l 788 564 l 803 564 l 782 532 l 761 564 l 775 564 l 775 611 l 689 611 l 689 564 l 706 564 l 757 500 l 757 474 l 738 474 l 738 428 l 850 428 l 850 474 l 829 474 l 829 501 l 881 564 l 900 564 m 636 474 l 617 474 l 617 564 l 636 564 l 636 611 l 503 611 b 438 556 463 611 438 586 b 503 500 438 524 463 500 l 544 500 l 544 474 l 524 474 l 524 428 l 636 428 m 393 474 l 374 474 l 374 564 l 393 564 l 393 611 l 197 611 l 197 525 l 254 525 l 254 564 l 300 564 l 300 536 l 267 536 l 267 503 l 300 503 l 300 474 l 254 474 l 254 513 l 197 513 l 197 428 l 393 428 m 1149 385 l 197 385 l 197 376 l 1149 376 m 1011 267 b 960 319 1011 294 986 319 b 928 289 947 319 928 311 b 979 236 928 260 953 236 b 1011 267 992 236 1011 244 m 282 301 b 257 319 276 311 271 319 b 238 288 244 319 236 310 b 208 319 232 306 224 319 b 192 303 200 319 192 314 l 196 301 b 207 310 196 307 200 310 b 240 264 225 310 235 286 b 232 243 246 240 232 243 l 233 238 l 272 238 l 271 243 b 257 256 271 243 261 240 b 250 290 253 269 250 283 b 263 308 250 301 254 308 b 279 299 271 308 275 303 l 282 301 m 1142 242 b 1128 253 1142 242 1131 240 l 1118 301 b 1128 313 1115 314 1128 313 l 1126 317 b 1064 317 1126 317 1081 317 b 1064 293 1065 311 1064 293 l 1069 293 b 1088 311 1069 293 1068 311 l 1093 311 b 1101 303 1097 311 1100 310 l 1106 281 l 1100 281 b 1083 293 1088 281 1083 293 l 1079 293 l 1086 261 l 1090 261 b 1101 276 1090 261 1089 276 l 1107 276 l 1111 253 b 1101 242 1114 240 1101 242 l 1103 238 l 1143 238 m 861 317 l 821 317 l 822 313 b 836 300 822 313 833 314 l 843 271 b 828 243 847 253 847 243 b 800 274 813 243 804 257 l 794 300 b 804 313 792 315 804 313 l 804 317 l 771 317 l 772 313 b 788 300 772 313 785 314 l 793 274 b 832 236 796 258 807 236 b 858 269 864 236 861 256 l 851 300 b 863 313 847 315 863 313 m 725 242 b 713 256 725 242 717 242 l 703 300 b 714 313 700 314 714 313 l 713 317 l 693 317 l 653 258 l 646 300 b 656 313 643 313 656 313 l 654 317 l 625 317 l 626 313 b 639 300 626 313 636 313 l 650 238 l 654 236 l 696 297 l 704 256 b 696 242 707 240 696 242 l 697 238 l 726 238 l 725 242 m 574 243 b 560 256 574 243 564 240 l 549 299 b 560 313 546 307 549 311 l 558 317 b 517 317 546 317 526 317 b 482 286 500 317 482 307 b 531 238 482 257 507 238 b 575 238 546 238 575 238 m 425 242 b 411 253 425 242 414 240 l 401 301 b 411 313 399 314 411 313 l 410 317 b 372 317 410 317 389 317 b 344 296 356 317 344 310 b 371 275 344 285 357 276 l 358 253 b 339 242 351 240 339 242 l 340 238 b 367 238 340 238 356 238 l 383 269 b 390 274 385 272 388 274 l 394 253 b 385 242 397 240 385 242 l 386 238 l 426 238 l 425 242 m 1149 185 l 197 185 l 197 176 l 1149 176 m 964 67 b 956 74 964 67 956 68 l 956 101 b 964 110 956 106 964 110 l 964 113 l 950 113 l 917 76 l 917 101 b 925 110 917 108 925 110 l 925 113 l 904 113 l 904 110 b 913 101 904 110 913 108 l 913 63 l 917 63 l 951 101 l 951 74 b 944 67 951 68 944 67 l 944 64 l 964 64 m 879 67 b 872 74 879 67 872 65 l 872 103 b 879 110 872 111 879 110 l 879 113 l 839 113 l 836 99 l 839 97 b 851 108 839 97 843 108 l 857 108 b 863 104 860 108 863 108 l 863 90 l 857 90 b 849 97 849 90 849 97 l 846 97 l 846 79 l 849 79 b 857 88 849 79 849 88 l 863 88 l 863 72 b 857 68 863 68 860 68 l 851 68 b 838 81 842 68 838 81 l 835 79 l 838 64 l 879 64 l 879 67 m 789 113 l 789 110 b 792 103 789 110 794 108 l 779 76 l 772 90 l 778 101 b 786 110 781 107 786 110 l 786 113 l 750 113 l 751 110 b 761 101 751 110 756 110 l 765 94 l 756 76 l 744 101 b 747 110 742 108 747 110 l 747 113 l 729 113 l 729 110 b 738 101 729 110 735 108 l 756 64 l 757 64 b 758 64 757 64 758 63 l 769 86 l 782 64 l 783 64 l 800 101 b 810 110 804 110 810 110 l 810 113 m 667 113 l 646 113 l 646 110 b 647 103 646 110 651 110 l 639 90 l 631 103 b 635 110 626 110 635 110 l 635 113 l 614 113 l 614 110 b 625 103 614 110 621 110 l 636 86 l 636 75 b 629 67 636 67 629 67 l 629 64 l 653 64 l 653 67 b 646 75 653 67 646 67 l 646 86 l 657 103 b 667 110 661 110 667 110 m 590 89 b 563 114 590 103 581 114 b 535 89 544 114 535 103 b 563 63 535 75 544 63 b 590 89 581 63 590 75 m 506 67 b 499 74 506 67 499 67 l 499 101 b 506 110 499 110 506 110 l 506 113 b 481 113 506 113 492 113 b 463 100 469 113 463 107 b 475 88 463 94 468 90 l 465 74 b 454 67 460 67 454 67 l 454 64 l 469 64 l 479 81 b 489 86 483 86 483 86 l 489 74 b 482 67 489 67 482 67 l 482 64 l 506 64 m 429 67 b 421 75 429 67 421 68 l 421 103 b 429 110 421 110 429 110 l 429 113 l 404 113 l 404 110 b 413 103 404 110 413 110 l 413 90 b 407 93 410 90 408 92 l 396 104 b 397 110 392 108 397 110 l 397 113 l 378 113 l 378 110 b 389 104 378 110 385 108 l 403 92 l 385 74 b 375 67 382 71 375 67 l 375 64 l 399 64 l 399 67 b 396 74 399 67 390 67 l 407 85 b 413 88 408 86 410 88 l 413 75 b 404 67 413 67 404 67 l 404 64 l 429 64 m 842 -115 b 826 -106 842 -108 838 -104 l 826 -124 b 842 -115 835 -124 842 -122 m 729 -114 b 714 -106 729 -107 722 -104 l 714 -122 b 729 -114 726 -124 729 -118 m 547 -115 b 532 -106 547 -108 543 -104 l 532 -124 b 547 -115 540 -124 547 -121 m 776 -111 l 769 -128 l 783 -128 m 1111 -122 b 1096 -104 1111 -110 1104 -104 b 1081 -121 1088 -104 1081 -111 b 1096 -139 1081 -132 1088 -139 b 1111 -122 1104 -139 1111 -132 m 613 -122 b 597 -104 613 -110 606 -104 b 582 -121 589 -104 582 -111 b 597 -139 582 -132 589 -139 b 613 -122 606 -139 613 -132 m 238 761 b 217 782 222 761 217 774 b 228 794 217 790 219 794 b 240 788 236 794 239 793 l 244 761 m 786 768 b 776 763 783 764 779 763 b 771 765 772 763 771 764 b 776 769 771 768 772 769 b 786 768 779 769 783 769 m 378 768 b 368 763 375 764 371 763 b 363 765 364 763 363 764 b 368 769 363 768 364 769 b 378 768 371 769 375 769 m 950 743 b 935 725 950 731 946 725 b 900 778 918 725 900 750 b 915 797 900 790 906 797 b 950 743 932 797 950 772 m 529 533 b 511 549 517 533 511 540 b 529 564 511 557 517 564 l 544 564 l 544 533 m 382 278 b 361 299 367 278 361 290 b 372 311 361 307 364 311 b 385 304 381 311 383 310 l 389 278 m 994 260 b 979 242 994 247 990 242 b 944 294 963 242 944 267 b 960 314 944 307 950 314 b 994 260 976 314 994 289 m 546 253 b 540 243 546 244 544 243 l 533 243 b 497 288 513 243 497 265 b 517 311 497 303 504 311 l 525 311 b 533 301 531 310 531 310 l 546 253 m 768 110 b 768 97 774 110 772 106 b 768 110 763 107 765 110 m 489 89 b 485 89 488 89 488 89 b 474 100 479 89 474 92 b 483 108 474 104 476 108 b 489 103 488 108 489 107 l 489 89 m 579 89 b 563 65 579 76 575 65 b 546 89 551 65 546 76 b 563 111 546 101 551 111 b 579 89 575 111 579 101 "},"Ò":{"ha":1154,"x_min":0,"x_max":0,"o":"m 575 -19 b 53 483 275 -19 53 204 l 53 486 b 578 992 53 765 278 992 b 1100 489 878 992 1100 768 l 1100 486 b 575 -19 1100 207 875 -19 m 578 224 b 825 483 726 224 825 343 l 825 486 b 575 749 825 626 724 749 b 329 489 428 749 329 629 l 329 486 b 578 224 329 346 431 224 m 283 1215 l 529 1294 l 674 1038 l 488 1038 "},"Ú":{"ha":1053,"x_min":0,"x_max":0,"o":"m 524 -18 b 74 426 247 -18 74 122 l 74 972 l 347 972 l 347 432 b 526 225 347 292 418 225 b 706 425 635 225 706 289 l 706 972 l 979 972 l 979 433 b 524 -18 979 119 800 -18 m 563 1288 l 808 1208 l 604 1031 l 418 1031 "},"Û":{"ha":1053,"x_min":0,"x_max":0,"o":"m 524 -18 b 74 426 247 -18 74 122 l 74 972 l 347 972 l 347 432 b 526 225 347 292 418 225 b 706 425 635 225 706 289 l 706 972 l 979 972 l 979 433 b 524 -18 979 119 800 -18 m 419 1267 l 633 1267 l 811 1038 l 642 1038 l 525 1122 l 408 1038 l 242 1038 "},"Ù":{"ha":1053,"x_min":0,"x_max":0,"o":"m 524 -18 b 74 426 247 -18 74 122 l 74 972 l 347 972 l 347 432 b 526 225 347 292 418 225 b 706 425 635 225 706 289 l 706 972 l 979 972 l 979 433 b 524 -18 979 119 800 -18 m 244 1208 l 490 1288 l 635 1031 l 449 1031 "}}}
